<?xml version="1.0" standalone="no"?>
<!DOCTYPE svg PUBLIC "-//W3C//DTD SVG 20010904//EN"
 "http://www.w3.org/TR/2001/REC-SVG-20010904/DTD/svg10.dtd">
<svg version="1.0" xmlns="http://www.w3.org/2000/svg"
 width="504.000000pt" height="495.000000pt" viewBox="0 0 504.000000 495.000000"
 preserveAspectRatio="xMidYMid meet">

<g transform="translate(0.000000,495.000000) scale(0.100000,-0.100000)"
fill="#000000" stroke="none">
<path d="M1061 4884 c-20 -26 -21 -38 -21 -388 0 -200 -4 -366 -9 -372 -5 -5
-189 -370 -410 -811 l-401 -802 2 -437 3 -437 27 -20 c24 -18 30 -18 57 -7 17
7 32 13 33 14 1 0 5 132 8 291 l5 290 134 -265 c73 -146 226 -449 340 -675
l206 -410 5 -373 c5 -355 6 -374 24 -388 27 -19 70 -18 89 4 15 17 17 58 17
380 l0 362 1365 0 1365 0 0 -360 c0 -347 1 -361 20 -380 25 -25 72 -26 93 -2
15 17 17 58 17 379 0 354 0 360 21 379 12 10 203 383 426 827 l404 809 -3 400
-3 400 -24 19 c-29 24 -53 24 -82 0 -24 -19 -24 -20 -27 -273 l-4 -253 -132
264 -133 264 13 61 c19 85 17 280 -2 374 -34 164 -113 299 -226 384 -147 111
-350 128 -518 43 l-49 -25 -1255 0 -1255 0 -3 359 c-3 337 -4 360 -22 380 -27
30 -70 27 -95 -5z m2487 -881 c-2 -5 -18 -37 -36 -72 -58 -111 -75 -195 -75
-371 0 -182 18 -266 84 -389 96 -180 255 -281 443 -281 157 0 290 63 387 184
29 37 56 63 60 59 9 -10 319 -629 319 -638 0 -14 -753 -1510 -764 -1517 -6 -4
-647 -8 -1424 -8 l-1412 0 -19 30 c-10 17 -184 360 -386 763 l-368 733 375
745 c206 409 377 750 382 757 6 9 271 12 1222 12 669 0 1214 -3 1212 -7z m536
-32 c102 -45 167 -158 188 -325 28 -220 -39 -415 -167 -487 -185 -104 -392 17
-436 256 -15 80 -6 286 15 352 20 64 69 137 118 176 72 57 191 69 282 28z"/>
<path d="M1280 3781 c-119 -37 -214 -145 -250 -286 -50 -194 -1 -400 120 -509
71 -64 134 -89 235 -94 102 -4 170 14 244 68 l41 30 0 178 c0 125 -4 182 -12
190 -13 13 -222 18 -252 6 -12 -5 -16 -21 -16 -69 0 -73 17 -95 73 -95 l37 0
0 -58 c0 -53 -2 -60 -25 -70 -39 -18 -115 -14 -162 7 -131 60 -167 326 -63
469 56 77 177 89 273 26 21 -14 48 -24 60 -22 25 3 89 102 80 124 -9 24 -101
85 -150 100 -49 15 -191 18 -233 5z"/>
<path d="M1755 3778 c-3 -7 -4 -206 -3 -443 l3 -430 223 -3 222 -2 0 85 0 85
-135 0 -135 0 -2 358 -3 357 -83 3 c-60 2 -84 -1 -87 -10z"/>
<path d="M2086 3782 c-2 -4 54 -128 125 -276 l129 -268 0 -169 0 -170 88 3 87
3 5 180 5 180 123 249 c67 138 120 256 118 263 -9 21 -149 18 -174 -4 -11 -10
-50 -90 -87 -178 -37 -88 -70 -163 -74 -167 -4 -4 -38 67 -76 158 -44 105 -79
173 -94 185 -18 15 -40 19 -97 19 -40 0 -75 -4 -78 -8z"/>
<path d="M2962 3774 c-63 -23 -146 -104 -182 -177 -99 -202 -66 -481 72 -615
72 -70 117 -87 233 -87 78 0 107 4 134 19 42 23 131 105 131 121 0 18 -62 94
-82 101 -11 3 -33 -7 -59 -28 -38 -31 -46 -33 -116 -33 l-75 0 -43 47 c-53 59
-70 116 -69 233 1 71 6 101 24 143 52 120 163 151 272 77 20 -14 44 -25 52
-25 17 0 42 30 71 83 l19 36 -29 32 c-17 17 -50 43 -75 57 -38 23 -57 27 -140
29 -67 2 -108 -2 -138 -13z"/>
<path d="M2728 2507 c-82 -161 -148 -296 -148 -300 0 -4 135 -7 300 -7 l300 0
-150 300 c-83 165 -151 300 -153 300 -1 0 -68 -132 -149 -293z"/>
<path d="M589 2634 l-146 -146 150 -150 150 -150 151 151 150 150 -148 146
c-82 80 -152 145 -155 145 -3 0 -72 -66 -152 -146z"/>
<path d="M1160 2490 l0 -290 290 0 290 0 0 290 0 290 -290 0 -290 0 0 -290z"/>
<path d="M4147 2602 l-147 -147 150 -150 150 -150 150 150 150 150 -147 147
c-81 82 -150 148 -153 148 -3 0 -72 -66 -153 -148z m268 -32 l110 -110 -218 0
c-119 0 -217 3 -217 7 0 9 202 213 210 213 3 0 55 -49 115 -110z"/>
<path d="M2069 2726 c-157 -56 -235 -239 -166 -389 28 -60 57 -94 116 -132 33
-23 56 -29 116 -33 103 -6 154 10 220 70 69 63 98 123 98 208 0 117 -68 222
-176 271 -49 22 -153 25 -208 5z"/>
<path d="M3300 2455 l0 -285 290 0 290 0 0 285 0 285 -290 0 -290 0 0 -285z
m528 -2 l-3 -238 -237 -3 -238 -2 0 240 0 240 240 0 240 0 -2 -237z"/>
<path d="M1200 2028 c-19 -7 -55 -33 -81 -58 -70 -67 -93 -160 -68 -270 20
-89 68 -134 191 -180 88 -33 108 -53 108 -109 0 -86 -69 -122 -150 -77 -115
63 -108 60 -125 46 -19 -16 -55 -83 -55 -103 0 -21 61 -74 113 -97 158 -70
316 -1 361 158 46 166 -12 283 -171 345 -90 36 -123 65 -123 110 0 83 85 110
169 54 23 -16 50 -27 59 -25 9 2 29 28 44 58 32 66 27 79 -51 123 -60 34 -160
45 -221 25z"/>
<path d="M1590 1595 l0 -436 83 3 82 3 5 180 5 180 129 3 c97 2 131 -1 138
-10 4 -7 8 -91 8 -185 l0 -173 80 0 80 0 0 435 0 435 -80 0 -80 0 0 -180 0
-180 -140 0 -140 0 -2 178 -3 177 -82 3 -83 3 0 -436z"/>
<path d="M2510 2025 c0 -9 -76 -256 -169 -547 -50 -157 -91 -293 -91 -302 0
-13 12 -16 68 -16 85 0 94 8 126 116 l23 79 130 3 130 3 22 -83 c31 -112 37
-118 129 -118 55 0 73 3 70 13 -3 6 -15 46 -27 87 -13 41 -47 149 -76 240 -29
91 -79 247 -111 348 l-58 182 -83 0 c-46 0 -83 -2 -83 -5z m134 -381 c20 -67
36 -126 36 -133 0 -13 -156 -16 -164 -3 -3 5 6 44 19 88 13 43 31 106 40 139
20 71 21 70 69 -91z"/>
<path d="M2990 1595 l0 -435 80 0 79 0 3 143 3 142 81 7 c191 16 276 106 277
294 1 72 -3 89 -31 145 -56 113 -120 139 -344 139 l-148 0 0 -435z m311 265
c34 -19 52 -68 47 -133 -4 -52 -9 -64 -37 -89 -29 -26 -38 -29 -94 -26 l-62 3
-3 128 -3 127 66 0 c37 0 75 -5 86 -10z"/>
<path d="M3585 2017 c-3 -6 -4 -201 -3 -432 l3 -420 230 0 230 0 3 54 c6 105
13 101 -153 101 l-145 0 0 100 0 100 115 0 115 0 0 75 0 74 -112 3 -113 3 -3
97 -3 97 148 3 148 3 3 54 c2 30 1 65 -3 78 l-5 23 -226 0 c-170 0 -226 -3
-229 -13z"/>
</g>
</svg>
