<?xml version="1.0" encoding="UTF-8" standalone="no"?>
<svg
   version="1.1"
   width="2674pt"
   height="1130pt"
   id="svg29"
   viewBox="0 0 2674 1130"
   sodipodi:docname="Maynooth_University_Logo.svg"
   inkscape:version="1.2.2 (732a01da63, 2022-12-09)"
   xmlns:inkscape="http://www.inkscape.org/namespaces/inkscape"
   xmlns:sodipodi="http://sodipodi.sourceforge.net/DTD/sodipodi-0.dtd"
   xmlns="http://www.w3.org/2000/svg"
   xmlns:svg="http://www.w3.org/2000/svg">
  <defs
     id="defs33" />
  <sodipodi:namedview
     id="namedview31"
     pagecolor="#ffffff"
     bordercolor="#000000"
     borderopacity="0.25"
     inkscape:showpageshadow="2"
     inkscape:pageopacity="0.0"
     inkscape:pagecheckerboard="0"
     inkscape:deskcolor="#d1d1d1"
     showgrid="false"
     inkscape:zoom="0.36602468"
     inkscape:cx="1782.6667"
     inkscape:cy="752.68148"
     inkscape:window-width="1920"
     inkscape:window-height="991"
     inkscape:window-x="-9"
     inkscape:window-y="-9"
     inkscape:window-maximized="1"
     inkscape:current-layer="svg29"
     inkscape:document-units="pt" />
  <path
     d="M 508.0005,1e-4 V 517.2595 C 338.6707,517.2286 169.3304,517.3088 0,517.2085 V 1e-4 Z M 363.2907,62.3088 c -33.5899,35.1192 -67.4606,69.9689 -100.9904,105.1191 0.2406,0.8113 1.0408,1.7408 0.2094,2.5302 3.7114,-1.4692 7.6904,-1.9797 11.5603,-2.8692 56.5203,-12.2709 113.0899,-24.3394 169.5903,-36.6996 2.49,-6.8519 3.6712,-14.2413 5.33,-21.3701 -39.9898,13.0292 -80.0799,25.8103 -120.1207,38.7193 -21.1697,6.9902 -42.5398,13.39 -63.5984,20.6903 -0.5904,-0.4994 -1.1718,-1.0099 -1.7314,-1.5403 5.41,-1.7008 10.2912,-4.6701 15.4406,-7.0104 45.6095,-21.9991 91.1002,-44.2896 136.7808,-66.1501 1.5585,-7.4387 3.2499,-14.8592 4.4492,-22.3801 -11.7604,6.7606 -23.1692,14.11 -34.8094,21.0804 -35.9997,21.9699 -72.0012,43.9707 -108.0009,65.9514 -3.7896,2.1691 -7.3202,4.8084 -11.3505,6.5294 2.6813,-3.2701 6.1611,-5.7201 9.2707,-8.5598 28.3114,-24.6895 56.5898,-49.4209 84.9411,-74.0611 0.9697,-0.9096 2.0979,-1.87 2.2784,-3.2902 1.2816,-6.5199 2.92,-12.9688 3.9317,-19.54 -1.0899,0.9207 -2.1818,1.8501 -3.1808,2.8508 z M 62.9099,127.0189 c 0.89,8.9992 2.5503,17.9107 3.7601,26.8696 12.6403,85.6902 25.2204,171.4006 37.8902,257.0908 0.0496,1.3997 1.72,1.4091 2.6997,1.8501 51.1602,13.9386 102.3094,27.8992 153.451,41.9199 0.0691,-94.7602 0.0802,-189.5204 -0.0111,-284.2809 C 194.7702,155.9992 128.84,141.5193 62.9099,127.0189 Z"
     style="fill:#004684;fill-rule:evenodd"
     id="path9" />
  <path
     d="m 1016.6117,1e-4 c -0.2498,172.4193 -0.04,344.8384 -0.1112,517.2594 -169.4993,-0.0111 -338.9986,-0.0201 -508.5,0 V 1e-4 Z M 696.5005,39.7977 c -0.0584,53.6003 0.1004,107.2117 -0.0802,160.8103 -3.8789,0.3716 -7.7086,1.0607 -11.52,1.8009 -32.4998,6.2101 -64.6299,16.31 -93.2091,33.2399 -15.4208,9.3106 -29.9608,20.7105 -40.4802,35.5002 -8.2899,11.5492 -13.6998,25.5099 -13.4903,39.8605 -0.1202,15.55 6.4508,30.4294 15.891,42.5197 10.419,13.2608 23.9403,23.7799 38.3493,32.3907 17.0193,10.1182 35.4493,17.719 54.3405,23.5794 39.2989,12.0994 80.6193,16.8786 121.6587,16.4996 42.5418,-0.7092 85.3203,-6.9503 125.3903,-21.6198 24.2612,-9.0593 47.8715,-21.2208 66.8701,-39.0895 11.5399,-11.0004 21.1714,-24.6509 24.9211,-40.3416 3.7803,-15.2983 1.0188,-31.8291 -6.6203,-45.5198 -8.0694,-14.6387 -20.4205,-26.4303 -33.9092,-36.08 -12.2618,-8.64 -25.5407,-15.849 -39.4211,-21.5197 -27.7095,43.6008 -55.2407,87.3198 -83.0398,130.8602 -11.7003,-29.7893 -23.6597,-59.4805 -35.7007,-89.1405 2.4608,-1.9687 5.6013,-2.6487 8.4903,-3.7695 31.7801,-11.85 63.5709,-23.6395 95.351,-35.4801 3.4597,-1.3709 7.1087,-2.3295 10.3388,-4.229 -25.9999,-10.8511 -53.75,-17.0703 -81.589,-20.9418 -19.7408,-2.4588 -39.6907,-4.2489 -59.5809,-3.3795 -19.5491,-48.2797 -38.7703,-96.7107 -58.2194,-145.0395 -1.5202,-3.6601 -2.7396,-7.4698 -4.7409,-10.9111 z m 70.9404,163.0412 c 4.0008,0.1295 8,0.3192 11.99,0.669 1.7209,11.1809 3.6694,22.3307 5.2699,33.5298 -5.8986,-11.3193 -11.7587,-22.6788 -17.2599,-34.1988 z M 585.5905,243.698 c 2.8397,-2.4386 6.1098,-4.2888 9.3398,-6.1682 11.8809,6.6496 23.8198,13.1879 35.7208,19.7898 3.1187,1.7901 6.4599,3.2191 9.2906,5.4684 -18.1511,-6.2592 -36.2203,-12.7795 -54.3512,-19.09 z m 331.3703,78.0803 c 20.0415,-5.8694 39.8804,-12.4494 59.9511,-18.2185 0.4501,2.7286 0.8093,5.4683 1.1191,8.2188 -16.0095,2.6594 -32.0006,5.4501 -47.9991,8.1496 -4.3401,0.7401 -8.6598,1.6806 -13.0711,1.8501 z m -369.6996,-6.3195 c 19.3105,2.6303 38.5898,5.5502 57.9093,8.1096 -18.76,0.6596 -37.569,-0.5196 -56.3491,-0.3702 -0.6196,-2.5591 -1.1409,-5.1491 -1.5602,-7.7394 z m 71.4198,74.3598 c 19.0808,-3.7292 38.2598,-6.9792 57.4098,-10.3405 -13.9094,5.3005 -28.2802,9.3416 -42.321,14.2614 -1.7388,0.4193 -3.6,1.6296 -5.379,0.7801 -3.3302,-1.3708 -6.5401,-3.0203 -9.7098,-4.701 z m 174.2003,0.33 c -2.8508,10.1401 -6.4199,20.0798 -9.741,30.0702 -4.9087,0.0312 -9.8303,0.1003 -14.7297,-0.1001 7.7704,-10.2897 16.4305,-19.8901 24.4707,-29.9701 z"
     style="fill:#eead13;fill-rule:evenodd"
     id="path11" />
  <path
     d="m 1262.8117,1e-4 c 17.9396,53.2392 35.46,106.6278 53.4197,159.8579 17.0411,-53.2392 33.6898,-106.5986 50.6707,-159.8579 h 70.6 v 232.4991 c -15.6705,0 -31.3299,0 -47.0001,0 -0.07,-55.0003 0.1292,-110.0007 -0.1004,-165.001 -6.3887,16.8497 -11.6402,34.1206 -17.6187,51.1307 -12.8415,37.9591 -25.7505,75.8999 -38.5809,113.8703 -12.9107,0.009 -25.8194,-0.0201 -38.7301,0.009 -18.8402,-54.419 -37.1701,-109.0199 -56.1705,-163.3694 -0.1205,54.4495 -0.01,108.8994 -0.049,163.3603 -15.7504,0 -31.5011,0 -47.2499,0 -0.011,-77.5003 0,-155.0007 0,-232.4991 z m 1411.1884,928.0007 v -63.5032 c -0.694,-6.6997 -2.1725,-13.6471 -6.3763,-19.0885 -3.8095,-4.9487 -9.7517,-7.8086 -15.8034,-8.9407 -6.325,-1.1192 -12.9416,-1.389 -19.1571,0.3719 -7.8928,2.2785 -15.1838,7.59 -18.5378,15.2583 -0.3098,-15.9491 -0.018,-31.9093 -0.1275,-47.8585 -3.8642,0 -7.7103,-0.011 -11.5382,0.0601 0.091,41.2291 0.018,82.4602 0.037,123.7006 3.8276,0 7.6555,0 11.5016,0 0,-15.6816 0.018,-31.3518 0,-47.0203 -0.5834,-11.5109 2.406,-24.7405 12.814,-31.2695 6.5438,-4.1706 14.9468,-4.9417 22.3472,-2.7706 5.0857,1.5199 9.1687,5.6486 11.0095,10.5882 1.9868,5.2314 2.2603,10.9112 2.3513,16.4506 -0.018,17.9997 -0.018,36.0108 -0.018,54.0216 3.8268,-0.0111 7.6532,0 11.4982,0 z M 2563.9994,1e-4 h -45.7515 c 0,77.4893 0.018,154.9897 0,232.479 15.2382,0.0399 30.4948,0 45.7515,0.0201 0,-28.171 0,-56.34 0,-84.511 -0.1276,-12.5297 0.146,-25.7394 6.0335,-37.1299 3.6819,-7.3494 11.0095,-12.4495 19.0477,-13.8495 9.5879,-1.83 20.9256,-1.6605 28.5812,5.2387 8.0385,7.581 9.4419,19.3615 10.0434,29.8114 0.1094,33.4698 0.018,66.9504 0.037,100.4202 15.1653,0.0201 30.3491,0.049 45.5326,-0.0202 -0.036,-29.8204 -0.018,-59.6409 -0.018,-89.4597 -0.1276,-12.3511 0.5833,-24.7895 -1.4766,-37.0204 -1.9137,-12.4203 -6.4707,-25.1397 -16.1133,-33.6702 -10.9913,-9.8303 -26.3389,-12.7795 -40.6658,-12.8396 -15.7124,-0.6999 -31.2605,6.1702 -42.179,17.3401 -3.3539,3.3886 -6.0516,7.3293 -8.8041,11.179 -0.036,-29.3301 0,-58.6599 -0.018,-87.988 z m -147.4985,13.4986 c 15.1653,0 30.3309,0.0091 45.4963,-0.011 0,16.8406 0,33.6702 0,50.5108 11.0823,0 22.1649,0 33.2473,0 0,10.3297 0,20.6702 0,31 -11.0824,0 -22.165,0 -33.2473,0 0,26.3406 0.018,52.6708 0,79.0007 0.2004,5.419 -0.2004,11.0806 1.7317,16.2499 1.3306,3.8988 5.1948,6.2101 9.1137,6.7989 7.4188,1.2211 15.0196,0.6508 22.4019,-0.6287 0.018,12.1084 0,24.2098 0,36.3095 -10.9548,1.7898 -22.0737,1.5894 -33.1379,1.48 -12.2856,-0.6106 -25.6646,-2.5299 -35.0884,-11.1901 -8.0019,-7.3292 -10.4992,-18.6193 -10.4992,-29.0693 0,-32.9612 -0.091,-65.9114 0.037,-98.8707 -9.114,-0.1896 -18.2277,-0.0111 -27.3235,-0.1004 0.037,-10.3203 0.018,-20.6393 0.018,-30.9597 9.0773,-0.0893 18.191,0.0893 27.305,-0.1003 -0.1276,-16.8004 -0.037,-33.6101 -0.055,-50.4196 z m -900.4394,50.9301 c 11.91,-3.7604 24.4908,-5.1494 36.9513,-4.9306 12.1286,-0.1695 24.3595,0.9496 36.089,4.1505 10.4408,2.92 20.7813,8.0402 27.5511,16.7803 5.9496,7.4698 8.3593,17.1907 8.3593,26.6088 -0.02,24.3303 -0.01,48.6606 -0.01,72.991 0.058,14.1993 -0.5907,28.5701 2.3094,42.5599 0.6891,3.4597 1.8902,6.7898 3.4087,9.9706 -15.3788,-0.1111 -30.7593,-0.0913 -46.129,-0.0111 -1.7697,-5.0198 -2.7394,-10.2585 -3.2409,-15.5389 -2.158,0.72 -3.4084,2.9401 -5.2384,4.2106 -15.5503,12.7391 -36.5412,16.7184 -56.1799,15.6084 -15.2308,-0.9298 -31.151,-6.5894 -40.6805,-19.0591 -7.63,-9.75 -10.1911,-22.5805 -9.5604,-34.7309 0.35,-10.8292 3.7604,-21.9991 11.4599,-29.8808 5.8892,-6.3085 13.8002,-10.3295 21.9095,-13.0201 12.9399,-4.1979 26.5706,-5.4281 39.9918,-7.1487 9.1193,-1.2396 18.5485,-2.0197 27.028,-5.8896 4.5114,-2.0214 8.3299,-6.0514 9.0009,-11.0897 0.771,-7.0103 -0.5397,-15.0616 -6.1302,-19.9009 -5.8091,-4.7902 -13.7291,-5.3206 -20.9291,-5.6106 -8.2607,-0.1403 -17.2706,1.0811 -23.6704,6.77 -5.3606,4.7007 -7.4296,11.9007 -8.2006,18.7415 -15.1691,-0.0399 -30.331,0.0202 -45.5001,-0.0201 0.6106,-10.991 3.7296,-22.0901 10.45,-30.9506 7.5299,-10.2201 18.9895,-16.8897 30.9597,-20.6099 z m 29.901,94.7001 c -8.8297,1.5202 -18.2699,3.4597 -25.0104,9.79 -6.2212,6.3105 -7.1306,16.4197 -4.2197,24.4707 2.6102,7.0979 10.0999,10.76 17.1905,11.7587 9.36,1.2798 19.3396,0.8804 28.0088,-3.2389 7.1014,-3.3211 12.32,-9.8504 14.8099,-17.2105 3.8897,-10.9605 2.0707,-22.7501 2.541,-34.1298 -9.8011,6.6405 -22.0811,6.5492 -33.3201,8.5598 z m 340.1486,-84.0316 c 9.4967,-8.8985 22.0556,-14.3178 35.0156,-15.4698 16.1498,-0.8294 33.7759,0.9516 46.8635,11.3814 7.2363,5.8402 12.0849,14.1996 14.8555,22.9906 3.4631,10.9786 4.1924,22.5786 4.411,34.0294 0,34.8202 0,69.6407 0,104.4703 -15.2566,0 -30.4948,0 -45.7515,0 0,-30.5096 0,-61.0101 0,-91.5214 0.1094,-10.1984 -0.091,-20.8289 -4.2106,-30.3491 -2.4973,-6.0007 -7.5279,-10.9896 -13.78,-12.9801 -7.674,-2.4095 -16.0586,-1.9902 -23.7507,0.1295 -6.635,1.8502 -12.3766,6.4599 -15.6211,12.5207 -5.1222,9.3308 -6.0151,20.2509 -6.38,30.6898 -0.018,30.4895 -0.018,60.99 0.019,91.4905 -15.2748,0.0399 -30.5133,0.009 -45.7699,0.0201 -0.018,-56.1705 0,-112.3302 0,-168.5007 14.491,0 29.0004,-0.0091 43.4914,0.0091 0.036,7.7814 -0.073,15.561 0.055,23.3317 3.6819,-3.9209 6.3796,-8.7313 10.5536,-12.242 z M 2080.455,60.5482 c 22.1284,-3.0898 45.9338,-0.1897 64.9817,12.1504 15.0015,9.4893 25.9197,24.6603 31.4065,41.4298 5.2129,16.0202 6.2884,33.2308 4.1559,49.8911 -2.3514,18.1602 -9.7155,36.0689 -22.7299,49.18 -13.3427,13.8696 -32.1903,21.5688 -51.1835,23.2988 -20.9982,2.0395 -43.2545,-1.6296 -60.9171,-13.72 -15.0013,-9.9705 -25.6462,-25.6702 -30.75,-42.8096 -5.523,-18.7509 -5.8328,-38.9707 -1.4766,-57.9895 4.0284,-17.2709 13.288,-33.601 27.2688,-44.7199 11.1736,-9.1012 25.0449,-14.6004 39.2442,-16.7111 z m 7.6921,34.6198 c -6.8902,1.2503 -13.4521,4.5805 -18.2095,9.7407 -6.5619,6.87 -9.9705,16.0897 -11.7569,25.2691 -2.2238,12.4495 -2.2238,25.3202 0.3464,37.7204 1.9139,8.9098 5.5595,17.7704 12.1215,24.2904 9.6423,9.6698 24.8261,11.6291 37.5854,8.1113 9.5332,-2.5118 17.28,-9.8011 21.5453,-18.5411 5.14,-10.4502 6.6529,-22.2707 6.7257,-33.7998 -0.1638,-10.47 -1.4034,-21.1496 -5.5774,-30.8594 -3.0988,-7.3114 -8.2026,-13.9716 -15.1656,-17.9308 -8.2937,-4.7299 -18.3371,-5.5902 -27.6149,-4.0008 z m 184.3733,-34.4194 c 17.8447,-2.6703 36.6375,-1.5602 53.4799,5.2897 14.3087,5.7198 26.7219,15.98 35.0702,28.9108 8.5121,13.1185 12.8687,28.6084 13.9989,44.1202 1.2212,16.7896 -0.6928,34.0495 -7.2729,49.6488 -5.4867,13.1111 -14.491,24.8315 -26.1385,33.0412 -14.6186,10.51 -32.8099,15.12 -50.6367,15.2583 -16.4412,0.2007 -33.1926,-3.2388 -47.4466,-11.6784 -12.5223,-7.3293 -22.7664,-18.4502 -29.1642,-31.47 -9.0227,-17.761 -11.1921,-38.2909 -9.3875,-57.9203 1.9323,-19.5914 9.369,-39.2607 23.6049,-53.2304 11.611,-12.0104 27.5238,-19.2705 43.8925,-21.9699 z m 6.9993,34.8605 c -7.6739,1.79 -14.6185,6.4306 -19.1937,12.8395 -5.669,7.9291 -8.3848,17.5807 -9.5697,27.1593 -1.44,12.1306 -0.9661,24.5911 2.2056,36.4317 2.2604,8.259 6.3797,16.2992 12.9963,21.8988 10.7181,8.9096 26.4302,10.0105 39.1714,5.1692 8.4212,-3.2882 14.8555,-10.3697 18.5559,-18.4991 5.523,-12.0394 6.5438,-25.5898 5.9604,-38.67 -0.5468,-8.8296 -2.1509,-17.71 -5.7782,-25.8196 -3.2263,-7.191 -8.4758,-13.6509 -15.5117,-17.3892 -8.7676,-4.6318 -19.2668,-5.2605 -28.8363,-3.1206 z M 1640.5021,63.9985 c 16.3302,0.0601 32.6605,-0.1202 48.9907,0.0893 12.249,38.4514 24.7405,76.8407 37.2702,115.2008 6.4998,-18.6703 11.899,-37.7401 17.9597,-56.5605 6.139,-19.5783 12.2088,-39.1694 18.3807,-58.7296 15.7397,0.0091 31.4793,-0.0091 47.219,0.0091 -21.9206,60.2098 -43.7794,120.4415 -65.7111,180.6403 -3.0985,8.5105 -5.9493,17.2505 -10.9783,24.8607 -5.7399,9.0391 -14.6497,16.0696 -25.0013,19.0006 -15.209,4.4201 -31.3296,3.1788 -46.8998,1.9103 0.02,-12.7502 0.04,-25.5098 -0.01,-38.2711 6.7405,0.5505 13.4903,1.3708 20.2892,1.1103 5.9715,0.0601 11.8205,-3.2099 14.9996,-8.259 4.3509,-6.7207 4.4603,-15.5208 1.7807,-22.8903 -19.4397,-52.7001 -38.8596,-105.4109 -58.2903,-158.1109 z m -448.4999,217.7501 c 16.4997,0 32.9996,-0.009 49.4992,0 -0.01,45.7605 0.011,91.5211 -0.01,137.2799 0.049,9.0301 0.1585,18.2004 2.5591,26.9697 2.2513,8.4705 7.24,16.4999 14.8502,21.1005 9.8302,6.0608 21.7803,7.1107 33.0797,6.6714 10.1308,-0.3518 20.8395,-2.3315 28.8907,-8.9317 7.1399,-5.8584 10.6195,-14.9593 12.0396,-23.849 1.5713,-9.9213 1.3014,-20.0013 1.3397,-30.0011 -0.01,-43.0684 0.02,-86.1295 -0.02,-129.1997 16.5107,-0.0692 33.0305,-0.0692 49.5412,0 -0.06,41.7396 0,83.4701 -0.02,125.2006 -0.1,13.0091 0.5706,26.1094 -1.6495,38.9908 -2.7014,17.2398 -9.8413,34.3191 -22.6717,46.4789 -13.8201,13.7109 -33.0795,20.4094 -52.0781,22.7701 -18.7509,2.1507 -38.0214,1.5803 -56.3202,-3.2992 -16.7604,-4.5204 -32.631,-13.9405 -42.7805,-28.2603 -11.6308,-16.0203 -15.7997,-36.1803 -16.2499,-55.6509 0,-48.7593 0,-97.5093 0,-146.27 z m 406.7493,0 c 15.0015,0.0108 30.001,-0.0201 45.0006,0.0108 -0.01,12.579 0.011,25.1597 -0.01,37.7388 -14.9995,-0.0292 -30.0101,0.0708 -45.0113,-0.0494 0.051,-12.5589 0,-25.1305 0.02,-37.7002 z m 720.9967,0 c 14.9102,0 29.8389,-0.009 44.7491,0 0,12.5807 0,25.1595 0,37.7405 -14.9102,0.009 -29.8389,0.049 -44.7491,-0.0201 0.018,-12.57 0,-25.1507 0,-37.7204 z m 94.8024,13.4703 c 14.8918,0.06 29.7658,0.0399 44.6579,0.0107 0.091,16.5801 0.036,33.16 0.036,49.7489 10.9003,0.051 21.8369,0 32.7551,0.0201 0,10.2495 0.019,20.5098 -0.018,30.761 -10.9185,0.009 -21.8551,-0.091 -32.7552,0.0601 0.073,25.6995 0,51.4094 0.018,77.1197 0.055,5.6687 -0.3827,11.6093 1.8411,16.9699 1.3852,3.5801 5.0856,5.6089 8.731,6.1993 7.3457,1.2615 14.8739,0.6016 22.183,-0.6689 0.019,11.9301 -0.018,23.8583 0.019,35.7902 -8.6038,1.5092 -17.3529,1.5803 -26.0476,1.5293 -8.2389,0.1403 -16.5144,-0.4703 -24.4979,-2.4608 -7.5645,-1.9196 -14.9833,-5.6287 -19.8317,-11.8899 -4.794,-6.0188 -6.7808,-13.7985 -7.1272,-21.3502 -0.055,-33.7797 0.055,-67.559 -0.055,-101.3296 -9.0773,0.04 -18.1547,0.0108 -27.214,0.0202 0,-10.2495 0,-20.49 0,-30.7392 9.0958,-0.0513 18.1914,0.049 27.2869,-0.0513 -0.036,-16.5799 -0.073,-33.1597 0.018,-49.7395 z m -938.2382,53.13 c 15.2093,-9.07 33.9692,-9.3801 50.8408,-5.5794 10.7597,2.539 21.0784,8.4393 27.3288,17.7701 8.8804,12.9398 10.4808,29.179 10.9913,44.439 0.069,35.3398 0,70.6799 0.038,106.0106 -15.0197,-0.0201 -30.0393,0.0803 -45.0499,-0.051 0.089,-29.9681 0.011,-59.94 0.04,-89.9081 0.1312,-10.891 -0.029,-22.4312 -5.2589,-32.2813 -3.2919,-6.48 -10.0015,-10.76 -17.1212,-11.6804 -7.9801,-1.059 -16.4906,-0.3991 -23.7598,3.27 -6.8499,3.4416 -11.2793,10.2915 -13.4994,17.4405 -3.27,10.4006 -3.3211,21.4393 -3.3613,32.241 0.011,26.9898 -0.01,53.9795 0,80.9801 -14.9193,0 -29.8296,0 -44.7489,0 0,-55.33 0,-110.6711 0,-166.0014 14.2594,0.0202 28.5191,-0.0493 42.7805,0.04 -0.011,7.7596 -0.1312,15.5211 0.069,23.2914 5.5102,-7.9418 12.1396,-15.2821 20.7102,-19.9811 z m 416.2515,-2.88 c 17.3892,-6.1007 36.7835,-6.7096 54.4462,-1.3598 16.0948,4.7994 30.0209,15.8199 39.0073,29.9299 12.3766,19.1701 16.5506,42.6892 15.1835,65.2096 -39.0801,0 -78.1784,0.0108 -117.2588,-0.009 0.4558,10.1291 2.5154,20.7304 8.8588,28.929 4.885,6.38 12.4129,10.3207 20.251,11.7406 9.3325,1.6696 19.3031,1.2395 28.0341,-2.7596 7.6921,-3.5399 14.9284,-9.3909 17.7355,-17.6408 13.197,0 26.3937,-0.0493 39.6088,0.0201 -5.1766,16.1606 -14.0536,31.7398 -27.9612,41.8907 -15.202,11.2994 -34.7967,14.79 -53.3526,13.9187 -17.7537,-0.7291 -35.5986,-6.5492 -49.3058,-18.08 -15.0562,-12.4696 -24.2246,-30.9889 -27.3235,-50.0987 -3.5362,-21.6802 -1.2393,-44.8511 9.2781,-64.3912 9.0408,-17.1286 24.4797,-30.8597 42.7986,-37.2994 z m 2.7888,38.8196 c -7.0178,6.6492 -10.6997,16.1898 -11.4653,25.7009 24.1517,0.0201 48.3035,0 72.4734,0.009 -1.9321,-9.5202 -4.7209,-19.4998 -11.7933,-26.5686 -6.8902,-6.8717 -17.1887,-8.8713 -26.5759,-8.2516 -8.2755,0.4209 -16.5873,3.3411 -22.6389,9.1102 z m 205.1529,-39.0294 c 9.8793,-4.2596 21.2533,-6.3995 31.7526,-3.2408 -0.018,14.2103 -0.018,28.4298 0.018,42.6401 -11.0095,-2.0797 -22.7299,-2.6903 -33.4114,1.2014 -9.1502,3.2499 -16.5688,10.5191 -20.6518,19.25 -4.229,8.9992 -5.7784,19.0188 -5.9607,28.8783 0,25.6719 0,51.3402 0,77.0119 -15.0012,-0.0108 -30.0027,0.009 -45.004,-0.0108 0.018,-55.3303 0,-110.6512 0,-165.9795 14.2356,-0.0312 28.4899,0 42.7621,-0.0111 0.055,10.3405 -0.1457,20.6904 0.091,31.0309 5.7962,-13.6106 16.7876,-24.8899 30.4038,-30.7704 z m 86.5996,-1.6313 c 16.8426,-3.8387 34.4868,-4.0884 51.5114,-1.2994 15.1838,2.6209 30.568,9.3708 39.7548,22.2412 6.1792,8.4195 8.9861,18.7801 10.0434,29.0588 -14.254,0.2914 -28.508,0.0309 -42.7623,0.1312 -0.5468,-6.201 -2.7522,-12.6411 -7.8925,-16.5106 -6.963,-5.421 -16.2955,-6.101 -24.7895,-5.9896 -6.1793,0.2987 -12.7959,1.0499 -17.845,4.9305 -5.7966,4.3781 -6.2521,13.8093 -1.3671,19.0497 3.9736,4.2999 9.6423,6.3998 15.0925,8.1788 13.1969,3.9407 26.8676,5.9604 40.1556,9.5913 10.6449,2.9894 21.4724,6.719 30.094,13.8787 6.6895,5.5103 11.3193,13.4411 12.7593,22.0008 2.4792,16.3996 -1.3125,34.5598 -13.2698,46.6302 -12.9779,13.0692 -31.7708,18.1492 -49.6523,19.5308 -19.4672,1.349 -39.882,-0.461 -57.49,-9.451 -11.9392,-5.9896 -21.7457,-16.4104 -26.1204,-29.1096 -2.2785,-6.3306 -3.3539,-13.0311 -3.6453,-19.7297 14.2174,-0.0309 28.4533,0.009 42.6891,-0.0309 0.237,6.52 2.0963,13.3007 6.7808,18.0692 7.1087,7.4914 17.9178,9.9011 27.9065,9.9303 8.3483,-0.2497 17.4076,-2.0596 23.5684,-8.1587 5.8147,-5.6616 7.3641,-16.321 1.112,-22.2505 -6.5437,-6.0097 -15.4207,-8.2409 -23.7143,-10.7107 -18.1914,-5.1894 -37.6949,-6.8899 -54.4462,-16.2791 -9.5329,-5.1894 -17.3891,-14.2413 -19.2118,-25.1705 -1.8593,-11.6294 -0.3464,-24.0608 5.3042,-34.4906 7.1453,-13.1587 21.2899,-20.7595 35.4345,-24.0406 z m -588.3537,1.3708 c 15.0015,0 30.001,-0.009 45.0116,0.0111 -0.011,55.3192 -0.031,110.6492 0.01,165.9685 -15.0106,0.0419 -30.0192,0.011 -45.0207,0.0218 0,-55.33 0,-110.6711 0,-166.0014 z m 69.0902,0 c 15.7507,0 31.5102,0 47.2609,0 11.4798,37.8097 22.8504,75.6505 34.3594,113.44 11.9006,-37.6801 22.9413,-75.6505 34.5214,-113.44 14.87,0 29.7493,-0.009 44.6377,0.0111 -18.2588,55.2991 -36.7781,110.52 -54.9382,165.8591 -16.6312,0.3209 -33.2802,0 -49.9111,0.1604 -18.7401,-55.3102 -37.3396,-110.6714 -55.9301,-166.0306 z m 651.9065,0 c 14.9286,0 29.8389,-0.009 44.7672,0.0111 -0.018,55.3283 -0.018,110.6492 0,165.9795 -14.9283,0.0199 -29.8386,0.0108 -44.7672,0.0108 0,-55.33 0,-110.6711 0,-166.0014 z m 186.6336,0.0111 c 16.0585,0.0289 32.1171,-0.1205 48.1938,0.0799 12.2309,37.9301 24.4434,75.8693 36.8566,113.739 12.2672,-37.8096 23.8054,-75.8891 35.7628,-113.8189 15.3294,-0.0201 30.6405,-0.0201 45.97,0 -0.4737,4.3089 -2.5152,8.2097 -3.8276,12.28 -19.1393,52.5594 -38.2601,105.1299 -57.3809,157.6987 -4.1193,10.6905 -7.1453,21.9316 -13.2151,31.7418 -4.6117,7.5991 -11.3922,13.9586 -19.5764,17.5385 -9.4603,4.1303 -19.9412,5.2296 -30.1669,4.9799 -7.2184,-0.0785 -14.6369,0.1712 -21.691,-1.2597 -0.1094,-12.5297 -0.1275,-25.0702 0.036,-37.609 6.1793,0.7691 12.3951,1.3689 18.6472,1.3887 5.8691,0.0913 11.9208,-2.4497 15.4023,-7.2799 4.8484,-6.6294 5.2495,-15.7289 2.5336,-23.2787 -19.1755,-52.071 -38.4057,-104.1202 -57.5447,-156.2003 z m -1313.8892,267.249 c 4.9286,0.2004 10.0488,-0.4686 14.8592,0.3007 25.0302,36.4006 49.3206,73.3391 74.4109,109.6997 -0.011,-36.6704 -0.051,-73.3502 0.018,-110.0206 4.4804,0.0202 8.9719,0.0111 13.4705,0.0111 -0.04,44.1802 0.091,88.3604 -0.07,132.5299 -4.8795,-0.0802 -9.7699,0.0399 -14.6404,-0.1004 -21.7201,-32.2903 -43.5806,-64.4694 -65.3499,-96.7198 -3.0897,-4.3891 -5.8603,-9.0099 -9.1394,-13.2604 -0.1404,36.6905 0.038,73.381 -0.091,110.0806 -4.4895,-0.0493 -8.9901,-0.0201 -13.4686,-0.0403 0.01,-44.1601 0,-88.3204 0,-132.4805 z m 622.281,-0.0202 c 4.1394,0.0111 8.3064,0.0111 12.4622,0 0,44.1803 0.091,88.3715 -0.055,132.552 -4.1377,-0.0603 -8.2791,-0.0513 -12.4075,-0.0311 -0.031,-44.1692 -0.031,-88.3497 0,-132.5209 z m 91.4791,0.0111 c 4.4842,-0.0111 8.9864,0 13.5068,0 0,28.5899 -0.018,57.1802 0,85.7704 0.3099,9.1684 2.151,18.8694 8.0204,26.2094 4.6479,5.9097 11.7751,9.4604 19.1208,10.6506 9.697,1.5602 19.9956,1.1994 29.1095,-2.7615 7.437,-3.2992 12.9782,-10.0491 15.4208,-17.7392 3.4631,-9.75 2.7887,-20.2201 2.8253,-30.38 0,-23.9094 0,-47.8296 0,-71.7497 4.411,0 8.822,-0.0111 13.2514,0.009 0,28.2509 -0.018,56.5004 0,84.7607 0.2007,9.8901 -1.8955,19.9701 -6.7808,28.6302 -4.9031,8.68 -13.1238,15.3003 -22.5292,18.5102 -11.1007,3.7894 -23.2041,4.1193 -34.6875,2.0996 -10.6631,-1.879 -20.9435,-7.3692 -27.4145,-16.2206 -6.5619,-8.5689 -9.2959,-19.4599 -9.7698,-30.0887 -0.1823,-29.2297 -0.019,-58.4708 -0.073,-87.7005 z m 227.2448,0.009 c 4.1377,-0.0202 8.312,0 12.486,-0.0292 0.037,6.5092 0.018,13.0201 0.018,19.529 -4.1922,-0.0199 -8.3481,-0.009 -12.5042,-0.0199 0,-6.489 0,-12.9892 0,-19.4799 z m 372.5195,-0.0202 c 4.1377,0.0111 8.312,0 12.5044,0.0202 -0.037,6.4907 -0.037,12.9798 0,19.4799 -4.1924,0.0108 -8.3483,-0.009 -12.5044,0.0309 -0.036,-6.5109 -0.018,-13.0201 0,-19.531 z m -1030.2642,0.0111 c 4.1596,-0.0111 8.3302,-0.0111 12.4988,0 0,6.4998 -0.01,13 0,19.4998 -4.1797,0 -8.3392,0 -12.4988,0 0,-6.4998 -0.011,-13 0,-19.4998 z m -50.5216,7.7703 c 4.1814,-0.0399 8.3611,-0.0399 12.5498,0.009 -0.058,9.4912 -0.018,18.9805 -0.029,28.47 6.3304,-0.009 12.661,0 18.9896,-0.009 0.011,3.6402 -0.01,7.2893 0.051,10.9386 -6.3595,0.1604 -12.721,-0.0292 -19.0698,0.1222 0.069,21.4795 0,42.959 0.029,64.4386 0.069,3.66 0.5505,8.361 4.4402,9.9813 4.6809,1.6387 9.7591,0.5998 14.6004,0.3283 -0.071,3.651 -0.051,7.3017 -0.04,10.9601 -8.2205,0.3209 -17.2196,1.8301 -24.7204,-2.4188 -5.8892,-3.7514 -6.5891,-11.3904 -6.7586,-17.7211 -0.051,-21.8585 -0.031,-43.73 0,-65.5886 -5.4321,-0.0711 -10.8511,-0.0201 -16.272,-0.0309 -0.01,-3.6711 -0.01,-7.3403 0,-11.0004 5.4209,-0.009 10.8399,0.0309 16.272,-0.0493 -0.062,-9.4711 0.01,-18.9496 -0.042,-28.4298 z m 1124.2772,-0.0201 c 4.0649,-0.0108 8.1479,-0.0198 12.2672,0.0201 -0.055,9.4893 -0.018,18.9896 -0.018,28.4791 6.325,0 12.6499,0 18.9933,-0.009 0,3.6493 -0.018,7.3003 0.036,10.9494 -6.3612,0.1406 -12.7046,-0.0199 -19.0477,0.1003 0.036,17.7993 0,35.6097 0.018,53.411 0.091,5.5301 -0.3826,11.1699 0.8204,16.6198 0.6378,3.0495 3.6272,4.8504 6.5801,5.1494 3.8826,0.2991 7.7649,-0.0802 11.6475,-0.39 -0.091,3.6399 -0.073,7.2708 -0.055,10.9201 -6.8717,0.3992 -13.9079,1.2104 -20.6337,-0.6599 -3.4815,-0.9405 -6.6532,-3.1807 -8.2573,-6.4306 -2.0596,-4.0703 -2.4242,-8.7293 -2.3695,-13.2098 0.036,-21.8202 0,-43.6297 0,-65.45 -5.4136,0 -10.8272,-0.009 -16.2408,0 -0.018,-3.6711 -0.018,-7.3403 0.018,-11.0004 5.3954,-0.009 10.809,0 16.2226,0 0.018,-9.5003 0.018,-18.9989 0.018,-28.4992 z m -1220.607,35.9396 c 7.5008,-7.7213 18.7308,-10.0508 29.1206,-10.1911 8.8203,0.0822 18.3096,1.2614 25.4895,6.861 6.2906,4.7902 9.2797,12.7593 9.701,20.4604 0.2205,18.4394 -0.2517,36.9003 0.2296,55.3303 -0.01,5.3901 6.3595,6.3196 10.3405,4.5789 -0.051,3.6399 -0.031,7.2802 -0.031,10.9312 -5.2696,0.6888 -10.9897,1.5202 -15.9803,-0.7512 -5.0599,-2.7105 -5.709,-9.0298 -6.0497,-14.1191 -4.5295,6.8993 -10.4298,13.4192 -18.4703,16.1187 -9.0298,2.9421 -19.0295,3.1408 -28.1398,0.4303 -7.6193,-2.2201 -14.3396,-7.92 -17.0192,-15.4789 -2.4007,-6.8408 -2.49,-14.491 -0.3008,-21.4013 2.2,-7.0795 8.4393,-12.1796 15.2402,-14.6494 12.2891,-4.6191 25.6008,-4.7393 38.4296,-6.7808 3.3503,-0.5595 7.1997,-1.9797 8.4702,-5.4592 1.8612,-5.3099 1.2305,-11.4597 -1.3598,-16.4104 -3.259,-5.9094 -10.3204,-8.0002 -16.6107,-8.5288 -7.7888,-0.5704 -16.5802,-0.1001 -22.6789,5.3991 -4.7412,4.0612 -6.4508,10.47 -6.6495,16.4906 -4.1706,-0.0309 -8.3302,-0.0111 -12.4807,-0.0511 0.3793,-8.2499 2.78,-16.7986 8.7494,-22.7792 z m 37.1098,41.9601 c -8.6984,1.3598 -17.619,2.109 -25.8999,5.279 -4.8191,1.8408 -9.5093,5.4099 -10.7688,10.6503 -1.9304,6.7207 0.7401,14.4601 6.469,18.4901 6.0497,4.5916 14.2194,5.04 21.3902,3.3211 9.2197,-1.9905 17.8705,-8.0509 21.5507,-16.9407 3.3885,-7.929 1.9102,-16.7204 2.2694,-25.0795 -4.3801,3.1005 -9.8904,3.4194 -15.0106,4.2797 z m 176.5517,-51.0902 c 10.7597,-2.2201 22.4801,-0.9989 32.0899,4.5496 8.8404,5.0199 15.2892,13.5904 18.7489,23.0508 5.4703,15.0687 5.2004,32.2994 -1.0591,47.1002 -3.5909,8.31 -9.6205,15.7198 -17.5002,20.2892 -10.6906,6.1813 -23.9403,7.1198 -35.701,3.7806 -10.809,-3.1096 -19.8388,-11.13 -24.8297,-21.1294 -7.8597,-15.7216 -8.299,-34.8407 -2.0597,-51.1818 4.9799,-13.0491 16.3704,-23.838 30.3109,-26.4592 z m 2.9293,10.7507 c -6.3907,1.7096 -12.2199,5.4683 -16.3193,10.6704 -4.9709,6.2193 -7.5317,14.059 -8.3702,21.9096 -1.1503,10.6597 0.5505,21.8406 5.9403,31.2188 3.4889,5.9604 8.8296,11.0202 15.3896,13.39 8.9189,3.31 19.3799,1.9905 27.1905,-3.4486 6.4998,-4.3801 10.8691,-11.3505 13.1893,-18.7402 3.0206,-10.0414 2.9803,-20.9398 0.1094,-31.0107 -2.1509,-7.3001 -6.1189,-14.2594 -12.1796,-18.9896 -6.9302,-5.4609 -16.4597,-7.0704 -24.95,-4.9997 z m 83.5594,5.76 c 4.8504,-10.2898 15.8615,-16.7205 27.0298,-17.4512 8.4611,-0.3702 17.4713,0.6106 24.7314,5.3407 5.809,3.8696 9.4292,10.2804 10.9292,16.99 2.3897,10.0999 1.2394,20.5498 1.5112,30.8302 0,15.2402 0,30.4804 0,45.7206 -4.1505,0 -8.301,-0.0201 -12.4313,0.0402 -0.1696,-17.2709 -0.029,-34.5415 -0.069,-51.8105 -0.071,-8.0804 0.671,-16.5016 -2.5007,-24.1407 -1.9888,-5.04 -6.1501,-9.2398 -11.3686,-10.8292 -9.0502,-2.7595 -19.6113,-1.3104 -26.9496,4.8796 -7.2913,6.099 -10.6614,15.789 -10.9202,25.0795 -0.031,18.9295 0.01,37.8607 -0.02,56.7902 -4.1706,-0.0202 -8.3409,0 -12.5005,-0.0202 0.02,-32.0788 -0.011,-64.1596 0.02,-96.2495 4.1505,0.009 8.3192,0.009 12.4898,0.009 0,4.9306 -0.04,9.881 0.049,14.821 z m 96.9313,-8.4504 c 7.5095,-6.921 18.1091,-8.981 28.0102,-9.1213 9.0593,0.0403 18.7892,1.4017 26.0292,7.3202 6.4309,5.2897 9.1213,13.8606 9.2307,21.9608 0,17.0102 0.01,34.0203 -0.011,51.0302 -0.04,2.5302 0.341,5.7308 2.8709,7.0197 2.3805,1.3705 5.1602,0.3991 7.6702,-0.1003 -0.06,3.6308 -0.051,7.251 -0.011,10.8802 -5.2586,0.771 -11.0004,1.54 -15.9894,-0.6891 -5.091,-2.6703 -5.6596,-8.9609 -6.1809,-14.0208 -4.6591,7.2601 -11.0897,13.9697 -19.6186,16.4104 -9.83,2.7998 -20.7703,2.7598 -30.2706,-1.2393 -7.7505,-3.2502 -13.5596,-10.5704 -14.9213,-18.8714 -1.3088,-7.8888 -0.6489,-16.7786 4.4804,-23.2603 4.6006,-5.769 11.7406,-8.64 18.7217,-10.3186 10.3388,-2.5101 21.0183,-2.9894 31.5085,-4.6007 3.64,-0.5595 7.6901,-2.3607 8.6599,-6.2796 1.6112,-6.3997 0.6908,-14.1009 -4.2197,-18.8912 -4.8195,-4.3891 -11.6804,-5.2988 -17.9288,-5.379 -6.5912,-0.1913 -13.6999,1.0392 -18.802,5.4995 -4.5788,4.1596 -6.5491,10.4808 -6.5582,16.5396 -4.1814,-0.0198 -8.3409,0 -12.4914,-0.0198 0.2114,-8.7696 3.1206,-17.9088 9.8212,-23.8692 z m 33.9397,43.329 c -9.799,1.6203 -20.3802,2.1107 -28.94,7.6901 -7.3292,4.7704 -8.0912,15.6104 -3.2207,22.3912 4.2415,6.0094 12.0212,8.7601 19.19,8.2204 10.9913,-0.481 22.2213,-6.2903 27.1502,-16.4412 4.0703,-8.2097 2.581,-17.619 2.931,-26.4393 -5.0017,3.4889 -11.3213,3.4996 -17.1105,4.5788 z m 285.0977,-34.8987 c 4.7573,-9.9105 15.1656,-16.3211 25.9744,-17.32 7.4007,-0.5797 15.129,0.1202 22.0011,3.1297 6.4891,2.7797 11.4103,8.5689 13.6159,15.2292 3.6819,10.4609 2.4061,21.7201 2.643,32.591 -0.037,15.9494 0.055,31.9005 -0.055,47.8406 -4.174,-0.051 -8.3483,0.0692 -12.5223,-0.1403 0.1641,-16.5217 0.018,-33.0506 0.073,-49.5814 -0.1642,-8.4994 0.8566,-17.329 -2.2057,-25.4695 -1.8955,-5.3207 -6.1245,-9.8793 -11.5928,-11.5489 -8.4393,-2.5813 -18.173,-1.5605 -25.4458,3.649 -6.3249,4.4495 -10.1891,11.7295 -11.6657,19.1993 -1.1665,5.2807 -0.8019,10.7107 -0.8385,16.0713 -0.018,15.9401 0.018,31.8804 -0.018,47.8205 -4.1743,-0.0312 -8.3483,-0.011 -12.4861,-0.0312 0.018,-32.0788 -0.018,-64.1596 0.018,-96.2495 4.1377,0.009 8.312,0.009 12.486,0 -0.018,4.9399 -0.018,9.8685 0.018,14.8102 z m 221.904,-6.3908 c 15.4754,-15.6302 44.8585,-15.0706 58.6567,2.53 9.0958,11.3998 11.848,26.5507 11.4287,40.8101 -23.951,0.0201 -47.9024,-0.0292 -71.8534,0.0292 0.4739,9.6406 2.971,19.6404 9.46,27.0808 10.6087,12.6099 32.9559,12.3111 43.0175,-0.8292 3.3721,-4.1306 5.2132,-9.2106 6.6532,-14.2707 4.174,-0.0199 8.3664,-0.009 12.5589,-0.009 -1.7498,7.0889 -4.0468,14.2195 -8.4212,20.1799 -4.9033,7.1801 -12.8143,12.0705 -21.2901,13.8293 -9.6789,1.9996 -20.0322,1.6898 -29.2553,-2.0905 -8.0566,-3.3103 -14.6917,-9.6698 -18.6471,-17.4002 -4.9944,-9.4402 -6.5073,-20.2983 -6.5073,-30.8486 0.237,-14.0006 4.0465,-28.8618 14.1994,-39.011 z m 8.6218,8.6199 c -6.2887,6.3706 -9.1687,15.2805 -10.317,23.9806 19.7589,-0.0202 39.5178,-0.0111 59.2764,-0.0111 -0.4736,-8.8296 -3.2445,-17.9396 -9.6423,-24.2994 -5.0672,-5.4301 -12.4495,-8.68 -19.8864,-8.4796 -7.3276,0.0604 -14.4545,3.4597 -19.4307,8.8095 z m 143.4155,-8.5396 c 5.523,-6.2995 13.8166,-9.451 21.9461,-10.6305 10.4264,-1.5092 21.8733,-0.3498 30.6227,5.9513 8.0019,5.669 12.0302,15.5483 12.0665,25.1688 -4.1559,0.0312 -8.3117,0 -12.4495,0.0403 -0.1822,-5.6305 -2.0962,-11.4506 -6.4706,-15.2002 -5.3226,-4.69 -12.7777,-5.9695 -19.6495,-5.5593 -5.7781,0.3189 -11.9211,1.9794 -15.8947,6.4196 -3.9189,4.4203 -4.7208,11.7405 -0.8385,16.4506 3.8279,4.5496 9.752,6.4289 15.2932,8.0093 6.7076,1.6696 13.4702,3.2099 20.251,4.6408 7.0906,1.7589 14.1446,5.2787 18.5012,11.3485 4.6842,6.3616 5.4136,14.9412 3.4812,22.4309 -2.3876,8.6108 -9.7699,15.0106 -17.9359,18.0399 -10.645,4.0012 -22.5842,4.4093 -33.539,1.4803 -8.257,-2.1892 -15.6577,-7.6904 -19.6861,-15.2711 -2.9344,-5.3991 -4.1921,-11.4999 -4.7389,-17.5589 4.1374,0 8.2936,0 12.4495,-0.0108 0.4921,6.6203 2.8068,13.4612 8.0929,17.7809 7.346,6.05 17.6445,7.0506 26.7038,5.1695 6.1061,-1.2996 12.5223,-4.1796 15.6027,-9.9504 2.5883,-5.1494 2.0599,-12.1487 -2.3148,-16.1992 -4.1196,-3.9206 -9.7701,-5.5902 -15.129,-6.9791 -9.8793,-2.4316 -20.1598,-3.8716 -29.3466,-8.4705 -4.9762,-2.5101 -9.4237,-6.571 -11.2648,-11.941 -2.8616,-8.35 -1.677,-18.379 4.2471,-25.1597 z m -39.2077,-4.1505 c 6.5254,-4.3492 14.4726,-5.8893 22.2194,-5.6395 0.037,4.2596 0.018,8.5195 0.037,12.7902 -7.7287,-0.4794 -15.7306,1.3507 -21.8914,6.1392 -8.3665,6.141 -12.7778,16.5799 -12.8688,26.8002 -0.018,17.2797 0.036,34.5506 -0.018,51.8304 -4.174,-0.0202 -8.3299,-0.009 -12.4858,-0.009 0,-32.0808 0,-64.1707 0,-96.2513 3.8277,0 7.6556,-0.009 11.5016,0 0.018,6.9191 -0.018,13.8493 0.018,20.7703 3.0988,-6.4306 7.3275,-12.5898 13.4886,-16.4304 z m -904.032,-4.2798 c 4.1797,-0.1003 8.3702,-0.1094 12.5606,0.0108 -0.091,32.0701 0.04,64.1288 -0.06,96.2005 -4.1595,-0.0312 -8.3208,-0.0312 -12.4605,-0.011 -0.051,-32.0698 0.031,-64.1305 -0.04,-96.2003 z m 755.4762,-0.1094 c 4.2834,0.0692 8.5487,0.0493 12.8506,0.0292 -11.7204,32.11 -23.5137,64.2016 -35.3073,96.2915 -4.2834,-0.0312 -8.5668,-0.0312 -12.814,-0.011 -12.1215,-32.0698 -24.2793,-64.1305 -36.3642,-96.2295 4.5935,-0.0601 9.2234,-0.011 13.8348,-0.051 9.6789,27.5511 19.3396,55.1004 29.0004,82.6498 9.7336,-27.5202 19.1208,-55.1498 28.7997,-82.679 z m -97.7006,0.0493 c 4.1743,-0.009 8.3302,-0.009 12.5042,0 0,32.0899 0.018,64.1705 -0.018,96.2604 -4.1924,-0.0292 -8.3664,0.051 -12.5404,-0.1001 0.1457,-32.0499 0.018,-64.0996 0.054,-96.1603 z m 372.5013,0 c 4.1559,0 8.3302,-0.009 12.5042,0 0.037,32.0497 -0.091,64.0996 0.055,96.1603 -4.1924,0.1601 -8.3664,0.0709 -12.5407,0.1001 -0.036,-32.0899 -0.018,-64.1705 -0.018,-96.2604 z m 83.0637,0.0309 c 4.4112,-0.0711 8.8588,-0.0201 13.3064,-0.051 10.1344,26.5796 20.0321,53.2502 30.3491,79.7499 9.46,-26.5487 18.8838,-53.1192 28.271,-79.6989 4.0465,-0.051 8.1477,-0.051 12.2491,-0.011 -2.3879,8.7712 -6.1792,17.0903 -9.0958,25.681 -8.822,23.8201 -17.6261,47.649 -26.4118,71.4691 -3.2811,8.5306 -5.9057,17.4294 -10.7725,25.2598 -2.5702,4.1414 -6.5804,7.6212 -11.5382,8.3412 -5.6143,0.8093 -11.4287,0.7892 -16.9517,-0.4504 0.036,-3.6 0.036,-7.1997 -0.018,-10.7906 4.5388,0.6307 9.278,1.7005 13.7619,0.1312 2.9894,-1.0006 5.2498,-3.4396 6.7445,-6.141 3.2445,-5.7398 5.0853,-12.0997 7.5279,-18.1803 -12.4313,-31.7891 -24.9902,-63.5198 -37.4215,-95.309 z m -1283.4414,161.009 c 6.6203,-6.5803 16.8695,-5.6999 25.3803,-4.619 0,3.4486 -0.01,6.9103 0,10.3788 -4.7594,-0.6999 -9.8595,-1.7589 -14.4601,0.1513 -2.6394,1.0902 -4.0884,3.8387 -4.4986,6.5401 -0.9006,5.37 -0.4504,10.8292 -0.5414,16.2593 5.7509,0 11.5015,-0.009 17.2508,0 -0.011,3.3301 -0.011,6.6603 0,9.9995 -5.7691,0.0311 -11.5402,-0.0783 -17.3002,0.0802 0.1695,26.5215 -0.08,53.041 0.1296,79.5603 -3.9501,0.1695 -7.8999,0.1114 -11.8298,0.1003 0,-26.5796 0,-53.1609 0,-79.7408 -4.9196,-0.009 -9.8394,0 -14.7498,0 -0.011,-3.35 -0.02,-6.6895 0.029,-10.0197 4.9013,0.0292 9.8101,0.0111 14.7206,0.0202 0.1493,-9.6699 -1.1501,-20.9492 5.8694,-28.7105 z m 88.6303,-5.2897 c 4.1612,-0.009 8.3301,-0.009 12.5005,0 0.02,41.2401 -0.029,82.4803 0.029,123.7204 -4.1888,0.0402 -8.3685,0.0312 -12.5388,0.009 0.02,-41.2382 0,-82.4783 0.01,-123.7295 z m 183.7607,-0.009 c 3.9098,0.009 7.8196,0 11.7405,0.009 0.01,41.2401 -0.02,82.4913 0.02,123.7295 -3.9408,0.0221 -7.8596,0.0221 -11.7715,0.0221 0.011,-41.2603 -0.02,-82.5115 0.011,-123.7607 z m 285.0046,0 c 3.9008,0.009 7.8197,0 11.7386,0.009 0.018,41.2401 -0.018,82.4913 0.018,123.7295 -3.6091,0.0221 -7.2,0.0221 -10.7725,0.0221 -0.037,-5.0803 0.036,-10.1512 -0.037,-15.2204 -3.4268,5.8295 -8.4396,10.7399 -14.5275,13.7492 -9.3691,4.9107 -20.7613,5.1695 -30.6244,1.6095 -8.2497,-2.9401 -14.9613,-9.409 -18.9403,-17.1193 -5.3189,-10.0709 -6.9794,-21.7403 -6.2302,-32.9995 0.8002,-10.5701 3.8695,-21.3301 10.6795,-29.662 9.2013,-11.6583 25.9036,-15.2785 39.7746,-11.168 8.0204,2.4098 15.2566,8.0802 18.6287,15.8599 0.62,-16.261 0.091,-32.5511 0.2917,-48.8101 z m -36.5099,42.3392 c -7.7341,1.83 -13.8532,7.8908 -17.0048,15.0216 -4.6097,10.2492 -5.2696,21.9898 -3.219,32.9482 1.8592,9.1412 6.3998,18.6707 15.0797,23.08 12.5079,6.3414 29.3868,1.2705 36.2223,-11.0387 5.1766,-8.9115 5.997,-19.6112 5.1947,-29.6801 -0.7837,-8.8606 -3.9007,-17.9709 -10.6449,-24.0605 -6.817,-6.1302 -16.7695,-8.4597 -25.628,-6.2705 z m 122.7452,-42.3301 c 5.9239,-0.0201 11.8846,0.0201 17.8268,-0.0292 8.3481,21.5104 16.6417,43.0393 24.99,64.5497 5.4683,13.8405 10.4811,27.8904 16.2955,41.5792 13.6891,-35.3489 27.2869,-70.729 40.9397,-106.0889 5.9604,-0.0309 11.9208,0.009 17.8993,-0.0309 0.1279,41.2512 0.018,82.5114 0.055,123.7606 -4.2652,0.0111 -8.5121,0.0111 -12.7593,0 0.055,-34.7201 -0.091,-69.4494 0.073,-104.1695 -13.6525,34.66 -26.9952,69.4494 -40.5201,104.1695 -3.9008,0.0111 -7.8015,0.0692 -11.6839,-0.1094 -8.166,-21.5014 -16.6785,-42.8607 -24.9721,-64.3017 -5.2495,-12.9381 -9.8064,-26.1788 -15.4752,-38.929 -0.3829,34.4302 -0.073,68.8898 -0.1459,103.3291 -4.1922,0.0311 -8.3665,0.0221 -12.5405,0.011 0.036,-41.2492 0,-82.4893 0.018,-123.7405 z m 606.2534,7.2601 c 3.9007,-0.0201 7.8377,-0.0493 11.7751,0.049 -0.091,8.8807 0.018,17.7614 -0.055,26.6417 5.9057,0.0893 11.8298,0.0494 17.7536,0.0292 0.018,3.3302 0.018,6.6697 0.018,10.0197 -5.9242,0 -11.8299,0 -17.7359,0 0,20.2603 0,40.5113 0,60.7714 0,3.219 0.5653,7.2691 3.8645,8.8092 4.3929,1.7498 9.2778,0.6908 13.8714,0.39 -0.018,3.5 0,6.9996 -0.018,10.5103 -7.1087,-0.0402 -14.5638,1.2705 -21.3627,-1.4601 -3.6819,-1.44 -6.1793,-4.9195 -7.0906,-8.6692 -1.3853,-5.4207 -0.966,-11.0514 -1.0207,-16.5798 0,-17.9215 -0.018,-35.841 0,-53.7608 -4.9944,-0.0201 -10.0072,-0.011 -14.9831,-0.011 -0.055,-3.3594 -0.055,-6.6986 0.036,-10.0398 4.958,0.0712 9.934,0.0111 14.9102,0.0493 0.091,-8.9078 0,-17.8285 0.037,-26.7491 z m -1330.983,25.1104 c 8.8093,-1.8793 18.2495,-1.2594 26.5796,2.2604 8.2299,3.4906 14.8791,10.18 18.9094,18.1 5.4502,10.6487 6.9211,23.069 5.3297,34.8495 -1.3487,10.2293 -5.47,20.3295 -12.8395,27.7007 -10.8202,10.9893 -28.1089,13.4994 -42.3995,8.7803 -12.0101,-3.981 -20.9401,-14.5803 -24.6603,-26.4504 -4.9397,-15.8105 -3.7896,-34.0511 5.0199,-48.3105 5.3008,-8.58 14.161,-14.9103 24.0607,-16.93 z m 2.92,9.9797 c -7.6411,1.7589 -14.0409,7.2309 -17.6808,14.0791 -6.6405,12.3511 -7.1691,27.6605 -1.9996,40.6312 3.1496,7.8398 9.1902,14.9304 17.42,17.6009 8.3101,2.6686 18.0601,1.6586 25.1598,-3.651 5.3408,-3.8809 8.9297,-9.741 11.1498,-15.88 4.1706,-11.9301 3.6201,-25.5098 -1.8099,-36.9496 -2.3604,-4.7299 -5.6707,-9.11 -10.0999,-12.0611 -6.3907,-4.3693 -14.6806,-5.6106 -22.1394,-3.7695 z m 278.439,-7.6703 c 13.7801,-5.9587 31.6307,-4.2888 42.4103,6.8009 10.2807,10.7306 13.341,26.299 13.0002,40.7098 -22.3891,0.1802 -44.78,-0.0695 -67.1692,0.1292 0.5888,9.0411 2.8491,18.4612 9.0392,25.3803 9.3509,10.8601 27.9703,11.2011 38.0503,1.1903 4.1303,-4.1996 6.5709,-9.7299 8.0401,-15.3695 3.9099,-0.0402 7.8398,-0.0292 11.7698,-0.0201 -2.0707,9.0499 -5.7308,18.2404 -12.8999,24.4596 -6.8298,6.0409 -16.1697,8.3302 -25.0994,8.3211 -8.5907,0.1584 -17.4694,-1.9412 -24.3612,-7.251 -8.0586,-5.9806 -12.7194,-15.55 -14.6699,-25.2108 -2.4806,-12.6391 -2.0103,-26.1094 2.78,-38.1597 3.5305,-8.9989 10.1599,-17.0102 19.1097,-20.9801 z m -0.3991,13.4813 c -6.6002,6.1702 -9.9907,15.0489 -11.1609,23.8601 18.421,-0.0511 36.8419,-0.0111 55.2609,-0.0309 -0.5394,-5.6106 -1.6095,-11.2995 -4.4493,-16.2411 -3.9208,-7.5388 -11.6203,-13.0984 -20.1106,-14.048 -7.0507,-0.8713 -14.3799,1.5985 -19.5401,6.4599 z m 115.8406,-9.0502 c 7.8798,-6.5911 18.6687,-8.0912 28.6195,-7.7102 8.4211,0.3189 17.5603,2.4406 23.3696,9.019 5.2606,5.6999 6.5311,13.8314 6.4508,21.3211 0.029,15.6702 -0.1204,31.3407 0.069,47.0092 0.08,4.8704 5.8802,5.5814 9.4402,3.9809 -0.029,3.4104 -0.029,6.8298 -0.04,10.2495 -4.8685,0.9003 -10.1801,1.44 -14.819,-0.6508 -4.7412,-2.5483 -5.3317,-8.5396 -5.5395,-13.3189 -4.5915,7.5388 -11.5509,14.1792 -20.4114,16.1006 -9.3107,1.9683 -19.5602,1.8391 -28.1599,-2.6105 -6.6603,-3.4503 -11.2592,-10.271 -12.2599,-17.6607 -0.9697,-7.3202 -0.2097,-15.4899 4.7299,-21.3392 4.3603,-5.1202 10.9094,-7.6411 17.2908,-9.1811 9.4805,-2.2896 19.2487,-2.7289 28.8601,-4.229 3.4597,-0.4811 7.4588,-2.0305 8.4393,-5.7799 1.3107,-5.2004 0.8002,-11.141 -2.2,-15.6906 -3.4103,-4.8302 -9.5896,-6.4508 -15.1801,-6.8989 -7.4296,-0.6911 -15.7796,0.2695 -21.4103,5.6395 -4.0592,3.8296 -5.2804,9.5493 -5.6396,14.8995 -3.8497,-0.0202 -7.7011,0 -11.5307,-0.0202 0.1,-8.5906 3.1405,-17.5405 9.9212,-23.1293 z m 30.8194,41.2404 c -9.2103,1.5384 -19.1701,2.0396 -27.17,7.3293 -7.0906,4.8393 -7.2,15.6994 -1.77,21.8404 4.3999,5.5304 11.9591,7.249 18.7197,6.3689 9.7501,-0.9097 19.4108,-6.4491 23.6412,-15.5192 3.7185,-7.55 2.0288,-16.1606 2.49,-24.2302 -4.6916,3.1498 -10.55,3.2009 -15.9109,4.2108 z m 62.6996,-33.4207 c 5.2205,-8.9297 14.8813,-14.9613 25.2399,-15.5007 8.8297,-0.3699 18.5613,0.7509 25.4914,6.8099 6.8593,6.0897 8.7803,15.7303 9.1486,24.4908 0.08,20.3292 -0.01,40.6695 0.042,61.0098 -3.9316,0.0111 -7.8505,0.0111 -11.7606,0.0111 0,-16.99 0,-33.982 0,-50.9721 0.079,-7.0996 0.299,-14.5584 -2.8817,-21.1096 -1.9285,-4.2196 -5.6798,-7.5296 -10.109,-8.8988 -9.1505,-2.8598 -20.0707,-0.8912 -26.8202,6.1685 -6.1192,6.2612 -8.4504,15.251 -8.4504,23.8107 0.031,16.9901 -0.01,33.9911 0.031,50.9792 -3.9407,0.0221 -7.8599,0.0221 -11.7697,0.0221 0.01,-29.9208 -0.02,-59.8417 0.01,-89.7605 3.9098,0.009 7.8197,0 11.7403,0.009 0.01,4.3106 -0.08,8.6198 0.089,12.9305 z m 383.695,-7.7193 c 7.4914,-6.3615 17.7719,-8.0311 27.3232,-7.8707 8.1298,0.2205 16.8789,1.7189 23.1128,7.3695 5.8876,5.2495 8.0567,13.4391 8.0385,21.0895 -0.036,15.3201 0.018,30.6315 -0.036,45.9502 0.036,2.16 -0.1457,4.801 1.7135,6.3504 2.0778,2.1399 5.2676,1.2906 7.8559,0.6999 -0.055,3.4104 -0.055,6.8301 -0.055,10.2495 -4.9396,0.7418 -10.3351,1.4709 -14.9465,-0.8183 -4.5022,-2.532 -5.0856,-8.1808 -5.432,-12.7905 -4.7393,6.7405 -10.7907,13.2205 -19.048,15.3294 -10.171,2.5101 -21.7091,2.3514 -30.9141,-3.1405 -6.2702,-3.6893 -10.2438,-10.5996 -10.9366,-17.7684 -0.8019,-7.1506 0.1641,-15.171 5.2132,-20.6813 4.5023,-5.1199 11.1736,-7.5588 17.6627,-9.0297 9.3506,-2.16 18.9748,-2.6504 28.4533,-4.0904 3.3721,-0.4904 7.1087,-2.1801 8.0932,-5.7691 1.5129,-6.0899 0.6197,-13.4393 -4.1377,-17.9107 -4.557,-3.8897 -10.8091,-4.6406 -16.5507,-4.8793 -6.4528,0.009 -13.5252,1.1994 -18.1913,6.0095 -3.8826,3.8497 -5.3226,9.4201 -5.3589,14.7501 -3.9373,-0.0202 -7.8562,0 -11.757,-0.0202 0.237,-8.5104 3.1717,-17.4603 9.8977,-23.0289 z m 27.3779,41.6486 c -8.3299,1.4216 -17.4257,2.1016 -24.334,7.4605 -7.4551,5.8402 -5.851,18.1712 1.3124,23.561 5.3226,4.4294 12.7231,4.8396 19.2668,3.5799 8.5853,-1.6112 16.8789,-6.8117 20.6156,-14.9412 3.8094,-7.5098 2.0596,-16.1297 2.5154,-24.19 -5.8875,3.3594 -12.8687,3.3103 -19.3762,4.5298 z m 147.6626,-33.6595 c 4.885,-8.9297 14.3453,-14.9193 24.4798,-15.7104 7.2728,-0.4793 14.9102,0.2296 21.5271,3.5399 5.2314,2.6212 9.205,7.3803 11.1733,12.8597 2.5339,6.631 2.88,13.8401 2.7525,20.8595 -0.018,18.3317 0,36.6616 0,55.0024 -3.9371,0 -7.856,0 -11.7567,0 0,-17.6811 -0.018,-35.3509 0,-53.0317 0.1457,-6.6096 -0.055,-13.5598 -3.1536,-19.5602 -2.023,-4.1797 -5.9422,-7.3094 -10.3714,-8.5598 -8.9682,-2.5702 -19.5219,-0.6287 -26.1385,6.2011 -5.9604,6.0188 -8.4212,14.6497 -8.5853,22.9396 -0.018,17.3308 0,34.6689 0,52.011 -3.9373,0 -7.8562,0 -11.757,0 0.018,-29.9208 -0.018,-59.8417 0.018,-89.7605 3.9005,0.009 7.8197,0 11.7386,0.009 -0.018,4.4002 -0.055,8.7911 0.073,13.2003 z m 109.895,-14.841 c 13.6707,-3.0184 29.2371,0.4011 38.916,10.9513 11.3193,12.3492 14.1812,30.3693 11.5382,46.4698 -2.1144,13.4008 -9.8612,26.5703 -22.402,32.5602 -14.9102,6.91 -34.359,4.9887 -46.2982,-6.7808 -10.645,-10.5103 -14.491,-26.2298 -13.5797,-40.799 0.7472,-12.951 5.6506,-26.29 15.8944,-34.7111 4.557,-3.8387 10.0982,-6.429 15.9313,-7.6904 z m 2.9529,9.9706 c -10.6268,2.3295 -18.1001,11.8298 -21.0348,21.8806 -4.2653,14.2594 -2.4426,31.1493 7.3457,42.8003 9.5148,11.3907 28.745,12.1689 39.2261,1.6991 9.6058,-9.5003 12.4311,-24.1192 10.6449,-37.139 -1.1848,-8.3902 -4.5569,-16.7604 -10.6996,-22.75 -6.6351,-6.3816 -16.6238,-8.691 -25.4823,-6.491 z m 93.1252,-9.9102 c 13.689,-3.1099 29.3465,0.2605 39.0619,10.8399 9.7336,10.4899 13.288,25.4313 12.4132,39.441 -0.6746,12.3803 -5.0856,25.1396 -14.4547,33.6192 -10.9547,10.3405 -27.8702,12.3001 -41.7597,7.5501 -12.3948,-4.3093 -21.2717,-15.6195 -24.662,-28.0398 -4.083,-14.6897 -3.0075,-31.1604 4.411,-44.6306 5.1951,-9.4091 14.4,-16.6 24.9903,-18.7798 z m 2.9165,9.9612 c -10.6449,2.4792 -18.1003,12.1087 -20.9072,22.2797 -4.1559,14.2796 -2.1691,31.1896 7.7831,42.6895 9.7336,11.23 29.0185,11.7204 39.3171,1.0006 9.8796,-10.2713 12.4679,-25.8797 9.8067,-39.4993 -1.5859,-7.9311 -5.2132,-15.7816 -11.4653,-21.0915 -6.6713,-5.6704 -16.1316,-7.5098 -24.5344,-5.379 z m -1023.4051,-6.4508 c 5.3005,-2.6501 11.3102,-3.4104 17.1904,-3.2097 0,3.979 -0.011,7.9691 0.01,11.9591 -9.0993,-0.7492 -18.6197,2.6413 -24.6402,9.6114 -5.5193,6.0789 -7.8398,14.4292 -7.8197,22.5094 -0.1094,15.6393 -0.029,31.2897 -0.04,46.94 -3.8498,0.0111 -7.6887,0.0111 -11.52,-0.011 0.031,-29.9098 0,-59.8196 0.02,-89.7293 3.5597,0 7.1416,0 10.7195,-0.009 0.071,6.3085 -0.098,12.6298 0.1205,18.9403 3.2408,-7.2108 8.6799,-13.6509 15.9602,-17.0011 z m 711.4745,-1.9301 c 4.1377,-0.009 8.3117,0 12.5042,-0.009 5.9238,15.3493 11.6475,30.7902 17.5167,46.1687 3.6637,9.2909 6.7626,18.8201 10.8272,27.9304 8.6947,-24.6895 17.5351,-49.3096 26.1569,-74.0098 3.9737,-0.1296 7.9654,-0.1403 11.9756,0.0198 -12.3404,33.0908 -24.4982,66.2395 -36.7654,99.3612 -2.643,6.6384 -4.9215,13.8894 -10.1891,18.9688 -6.4347,5.3303 -15.5849,4.3906 -23.277,3.2902 -0.073,-3.4296 -0.091,-6.87 0.055,-10.29 5.7419,1.0403 13.1786,2.1801 17.3529,-3.0101 4.32,-5.7691 6.0879,-12.9399 8.7491,-19.5401 -11.611,-29.6291 -23.2585,-59.26 -34.9058,-88.88 z"
     style="fill:#231f20;fill-rule:evenodd"
     id="path13" />
  <path
     d="m 696.5005,39.7977 c 2.0013,3.4413 3.2207,7.251 4.7409,10.9111 19.4491,48.3288 38.6703,96.7598 58.2194,145.0395 8.9005,22.6406 18.2404,45.1009 26.9898,67.7999 12.041,29.66 24.0004,59.3512 35.7007,89.1405 -3.2392,-0.8093 -6.181,-2.4295 -9.1593,-3.8695 -38.7814,-18.9312 -77.6702,-37.6495 -116.5808,-56.3108 -0.0402,-30.6392 -0.0312,-61.2706 0.009,-91.9004 0.1806,-53.5986 0.0218,-107.21 0.0802,-160.8103 z"
     style="fill:#ffe9c2;fill-rule:evenodd"
     id="path15" />
  <path
     d="m 363.2907,62.3088 c 0.999,-1.0007 2.0909,-1.9301 3.1808,-2.8508 -1.0117,6.5712 -2.6501,13.0201 -3.9317,19.54 -0.1805,1.4202 -1.3087,2.3806 -2.2784,3.2902 -28.3513,24.6402 -56.6297,49.3716 -84.9411,74.0611 -3.1096,2.8397 -6.5894,5.2897 -9.2707,8.5598 4.0303,-1.721 7.5609,-4.3603 11.3505,-6.5294 35.9997,-21.9807 72.0012,-43.9815 108.0009,-65.9514 11.6402,-6.9704 23.049,-14.3198 34.8094,-21.0804 -1.1993,7.5209 -2.8907,14.9414 -4.4492,22.3801 -45.6806,21.8605 -91.1713,44.151 -136.7808,66.1501 -5.1494,2.3403 -10.0306,5.3096 -15.4406,7.0104 0.5596,0.5304 1.141,1.0409 1.7314,1.5403 21.0586,-7.3003 42.4287,-13.7001 63.5984,-20.6903 40.0408,-12.909 80.1309,-25.6901 120.1207,-38.7193 -1.6588,7.1288 -2.84,14.5182 -5.33,21.3701 -56.5004,12.3602 -113.07,24.4287 -169.5903,36.6996 -3.8699,0.8895 -7.8489,1.4 -11.5603,2.8692 0.8314,-0.7894 0.0312,-1.7189 -0.2094,-2.5302 C 295.8301,132.2777 329.7008,97.428 363.2907,62.3088 Z M 62.9099,127.0189 c 65.9301,14.5004 131.8603,28.9803 197.7899,43.4495 0.0913,94.7605 0.0802,189.5207 0.0111,284.2809 -51.1416,-14.0207 -102.2908,-27.9813 -153.451,-41.9199 -0.9797,-0.441 -2.6501,-0.4504 -2.6997,-1.8501 C 91.8904,325.2891 79.3103,239.5787 66.67,153.8885 65.4602,144.9296 63.7999,136.0181 62.9099,127.0189 Z"
     style="fill:#7c91bc;fill-rule:evenodd"
     id="path17" />
  <path
     d="m 759.4608,195.7483 c 19.8902,-0.8694 39.8401,0.9207 59.5809,3.3795 27.839,3.8715 55.5891,10.0907 81.589,20.9418 -3.2301,1.8995 -6.8791,2.8581 -10.3388,4.229 -31.7801,11.8406 -63.5709,23.6301 -95.351,35.4801 -2.889,1.1208 -6.0295,1.8008 -8.4903,3.7695 -8.7494,-22.699 -18.0893,-45.1593 -26.9898,-67.7999 z m 7.9801,7.0906 c 5.5012,11.52 11.3613,22.8795 17.2599,34.1988 -1.6005,-11.1991 -3.549,-22.3489 -5.2699,-33.5298 -3.99,-0.3498 -7.9892,-0.5395 -11.99,-0.669 z m -82.5406,-0.43 c 3.8114,-0.7402 7.6411,-1.4293 11.52,-1.8009 -0.0403,30.6298 -0.0493,61.2612 -0.009,91.9004 38.9106,18.6613 77.7994,37.3796 116.5808,56.3108 2.9783,1.44 5.9201,3.0602 9.1593,3.8695 27.7991,-43.5404 55.3303,-87.2594 83.0398,-130.8602 13.8804,5.6707 27.1593,12.8797 39.4211,21.5197 13.4887,9.6497 25.8398,21.4413 33.9092,36.08 7.6391,13.6907 10.4006,30.2215 6.6203,45.5198 -3.7497,15.6907 -13.3812,29.3412 -24.9211,40.3416 -18.9986,17.8687 -42.6089,30.0302 -66.8701,39.0895 -40.07,14.6695 -82.8485,20.9106 -125.3903,21.6198 -41.0394,0.379 -82.3598,-4.4002 -121.6587,-16.4996 -18.8912,-5.8604 -37.3212,-13.4612 -54.3405,-23.5794 -14.409,-8.6108 -27.9303,-19.1299 -38.3493,-32.3907 -9.4402,-12.0903 -16.0112,-26.9697 -15.891,-42.5197 -0.2095,-14.3506 5.2004,-28.3113 13.4903,-39.8605 10.5194,-14.7897 25.0594,-26.1896 40.4802,-35.5002 28.5792,-16.9299 60.7093,-27.0298 93.2091,-33.2399 z m -99.3098,41.2891 c 18.1309,6.3105 36.2001,12.8308 54.3512,19.09 -2.8307,-2.2493 -6.1719,-3.6783 -9.2906,-5.4684 -11.901,-6.6019 -23.8399,-13.1402 -35.7208,-19.7898 -3.23,1.8794 -6.5001,3.7296 -9.3398,6.1682 z m 331.3703,78.0803 c 4.4113,-0.1695 8.731,-1.11 13.0711,-1.8501 15.9985,-2.6995 31.9896,-5.4902 47.9991,-8.1496 -0.3098,-2.7505 -0.669,-5.4902 -1.1191,-8.2188 -20.0707,5.7691 -39.9096,12.3491 -59.9511,18.2185 z m -369.6996,-6.3195 c 0.4193,2.5903 0.9406,5.1803 1.5602,7.7394 18.7801,-0.1494 37.5891,1.0298 56.3491,0.3702 -19.3195,-2.5594 -38.5988,-5.4793 -57.9093,-8.1096 z m 71.4198,74.3598 c 3.1697,1.6807 6.3796,3.3302 9.7098,4.701 1.779,0.8495 3.6402,-0.3608 5.379,-0.7801 14.0408,-4.9198 28.4116,-8.9609 42.321,-14.2614 -19.15,3.3613 -38.329,6.6113 -57.4098,10.3405 z m 174.2003,0.33 c -8.0402,10.08 -16.7003,19.6804 -24.4707,29.9701 4.8994,0.2004 9.821,0.1313 14.7297,0.1001 3.3211,-9.9904 6.8902,-19.9301 9.741,-30.0702 z"
     style="fill:#f6d294;fill-rule:evenodd"
     id="path19" />
  <path
     d="m 0,517.2085 c 169.3304,0.1003 338.6707,0.0201 508.0005,0.051 -0.0201,204.2504 0.04,408.49 -0.0309,612.7407 h -0.3591 C 350.7812,1064.8901 193.8699,999.9996 37.0001,935.0001 30.4302,932.009 23.11,930.1897 17.6601,925.2191 7.6997,916.9 2.5498,904.3593 0,891.9299 Z m 96.4403,61.6405 c 2.0098,2.4298 4.5099,4.3911 6.8097,6.5293 3.9104,-7.6794 4.2698,-16.6785 2.5206,-24.9886 -3.4705,5.9588 -6.1305,12.3602 -9.3303,18.4593 z m 16.8398,15.8309 c 2.6702,2.4698 5.3101,4.989 8.0501,7.3803 4.4802,-10.7507 6.6702,-22.4309 6.2204,-34.0713 -5.4706,8.4705 -10.3003,17.4095 -14.2705,26.691 z M 65.8505,572.5186 c 3.1598,2.3114 6.8593,3.6309 10.4395,5.1401 5.1202,2.0307 10.3699,4.0504 15.9301,4.4405 -2.7697,-2.9092 -5.2098,-6.2504 -8.4603,-8.6199 -5.8399,-1.4601 -11.9497,-1.44 -17.9093,-0.9607 z m 79.1096,12.4002 c -4.0201,9.4895 -8.2502,18.9513 -10.9097,28.9403 2.7601,2.8106 5.1599,6.0205 8.4297,8.2899 5.2903,-13.4393 7.7604,-28.2804 5.3104,-42.62 -1.1203,1.7005 -2.0599,3.4996 -2.8304,5.3898 z M 74.7,593.3691 c 11.3604,5.9205 24.1305,9.9706 37.04,9.8414 -2.91,-3.2919 -5.54,-7.1107 -9.14,-9.6007 -9.2599,-0.6015 -18.6199,-0.9607 -27.9,-0.2407 z m 93.6099,10.9514 c -4.7398,10.1381 -9.6599,20.2383 -13.1794,30.8977 3.4197,3.3613 6.5798,7.0304 10.37,10.0108 6.4998,-14.4601 7.8999,-30.7392 5.9596,-46.3496 -1.1699,1.73 -2.27,3.5289 -3.1502,5.4411 z m -82.5301,11.8588 c 14.9105,6.7005 31.2406,10.7107 47.6107,11.0007 -2.5007,-3.3412 -5.3901,-6.3706 -8.1607,-9.4712 -1.4496,-2.0398 -4.1394,-1.8303 -6.3297,-2.2093 -10.9999,-1.1903 -22.1902,-1.0993 -33.1203,0.6798 z m 107.4211,12.0104 c -5.1511,10.6486 -10.5103,21.319 -13.6408,32.7696 3.4696,3.0696 5.9706,7.2913 9.7891,9.8904 7.9402,-17.5496 12.2219,-36.9091 11.3505,-56.2105 -3.1096,4.1505 -5.0088,9.03 -7.4988,13.5505 z m 20.92,47.9097 c -1.781,5.5704 -4.3602,11.0296 -5.04,16.8696 2.9784,3.9702 6.3394,7.6813 9.739,11.3105 9.021,-22.6409 14.4309,-47.0001 13.8495,-71.449 -7.16,13.9697 -12.96,28.6084 -18.5485,43.2689 z M 96.48,641.2097 c 1.7802,1.0208 3.6,1.9704 5.5003,2.7596 17.7302,7.4004 36.9698,11.3904 56.2097,11.0004 -2.9795,-3.4305 -5.8797,-6.9302 -8.94,-10.2804 -1.3501,-1.7499 -3.7097,-1.77 -5.6897,-2.1892 -15.55,-2.4608 -31.42,-2.5608 -47.0803,-1.2904 z m 170.1711,15.3386 c -5.1601,11.3213 -9.9504,22.8212 -14.5712,34.3721 -4.659,12.1595 -9.5805,24.3082 -12.8505,36.9181 3.2811,5.1313 7.5699,9.7812 11.5911,14.4218 9.7608,-24.9409 15.4698,-51.5205 16.3301,-78.3005 0.0292,-2.4699 0.4995,-5.0712 -0.4995,-7.4115 z m -151.8808,13.7619 c 21.6697,11.1189 46.1902,16.0895 70.4506,16.4889 -3.9206,-5.0091 -7.8903,-10.08 -12.3909,-14.5605 -19.0097,-4.1394 -38.7796,-3.8386 -58.0597,-1.9284 z M 294.5305,709.58 c -8.2097,19.529 -15.9804,39.2899 -21.9096,59.65 4.3691,6.09 9.0499,11.9792 13.7398,17.8194 13.1987,-33.7595 21.2701,-69.8502 21.1697,-106.2 -5.0799,9.1996 -8.7091,19.1393 -12.9999,28.7306 z m -164.1606,-7.3712 c 5.6001,3.2006 11.6801,5.4207 17.6805,7.7303 21.0898,7.6391 43.53,11.7695 65.9702,11.5308 -2.7105,-4.0411 -6.1101,-7.5407 -9.0593,-11.3995 -1.5803,-1.8411 -2.9109,-4.32 -5.5811,-4.6007 -22.6298,-4.8103 -46.0199,-5.0893 -69.0103,-3.2609 z m 220.1615,20.3201 c -8.7001,20.6011 -17.0719,41.3513 -24.5619,62.4209 -4.369,12.7794 -9.11,25.5696 -11.6694,38.8505 4.1616,6.2703 9.1012,12.0303 13.2809,18.3096 0.9386,-1.6495 1.7989,-3.3392 2.4698,-5.1109 14.9905,-38.6994 24.0696,-80.049 23.8091,-121.659 -1.2796,2.3094 -2.3295,4.7392 -3.3285,7.1889 z m -201.4509,19.0715 c 13.7299,6.9594 28.3797,12.0597 43.291,15.8582 18.2296,4.4512 37.0094,7.0905 55.7986,6.5001 -4.4294,-5.6086 -8.7692,-11.2995 -13.1695,-16.939 -1.9502,-1.8391 -4.9708,-1.7099 -7.4313,-2.3896 -25.8398,-4.8305 -52.3491,-4.9708 -78.4888,-3.0297 z m 221.281,71.7699 c -7.3021,20.1781 -14.4913,40.4801 -19.2212,61.4491 4.8504,6.8701 9.3399,14.01 14.531,20.6394 6.6787,-15.3896 12.2289,-31.2696 16.7695,-47.4194 8.8786,-31.9295 14.1995,-65.1093 13.3191,-98.3092 -9.2489,20.8797 -17.3602,42.2589 -25.3984,63.6401 z m 52.2986,17.0501 c -12.1796,32.2194 -24.2901,64.61 -32.3886,98.1399 -1.4219,3.4594 1.7078,6.139 3.3301,8.8495 4.1596,5.8201 7.5081,12.2 11.9684,17.8002 6.9702,-16.4095 13,-33.2099 18.0309,-50.3204 11.4906,-39.2405 18.379,-80.0504 17.9286,-121.0209 -7.0395,15.1911 -12.7193,30.9818 -18.8694,46.5517 z M 170.6505,789.2296 c 13.8795,7.0503 28.6293,12.2799 43.5795,16.5798 23.751,6.44 48.411,10.3808 73.0713,9.5496 -4.061,-6.099 -8.7602,-11.7294 -13.051,-17.659 -1.1611,-1.4 -2.1691,-3.2811 -4.1596,-3.5197 -10.8692,-2.6904 -21.9807,-4.3603 -33.1214,-5.3609 -22.0484,-1.8593 -44.3098,-1.9103 -66.3188,0.4102 z m 17.1093,48.0591 c 25.0705,12.1615 51.8307,20.7904 79.2394,25.7613 19.2011,3.3794 38.7321,5.4499 58.2412,4.7299 -3.5107,-6.281 -8.3298,-11.7094 -12.34,-17.6607 -1.6387,-2.0305 -2.7488,-4.9799 -5.5996,-5.4902 -21.3009,-5.4482 -43.3,-7.59 -65.2206,-8.4886 -18.1001,-0.5907 -36.2804,-0.6106 -54.3204,1.1483 z m 22.2707,54.1619 c 16.179,8.3389 33.4094,14.5383 50.7898,19.87 33.59,9.7991 68.68,15.2583 103.7208,14.0499 -3.8112,-6.431 -8.2517,-12.4515 -12.2615,-18.7509 -1.4182,-1.9395 -2.4699,-4.619 -5.1095,-5.0692 -19.6092,-5.4502 -39.8693,-8.2298 -60.1203,-9.79 -25.63,-1.8901 -51.3785,-2.0214 -77.0193,-0.3098 z m 19.7005,55.7093 c 20.5098,10.1398 42.1186,17.9699 64.1486,24.1098 35.2415,9.5402 71.841,14.7299 108.3912,13.5901 -4.2307,-8.0101 -9.4,-15.4701 -13.9606,-23.29 -1.3105,-1.8899 -2.1802,-4.5499 -4.7302,-4.9799 -30.6989,-8.7103 -62.7596,-11.211 -94.5397,-11.8307 -19.7807,-0.0292 -39.649,0.1111 -59.3093,2.4007 z"
     style="fill:#01818e;fill-rule:evenodd"
     id="path21" />
  <path
     d="m 508.0005,517.2595 c 169.5014,-0.0201 339.0007,-0.0111 508.5,0 -0.01,120.5799 0,241.1708 0,361.7597 -0.058,5.6104 0.4301,11.3304 -1.0389,16.8296 -2.7105,11.4015 -8.2499,22.5916 -17.5606,30.0101 -5.4193,4.5805 -12.4495,6.3213 -18.7892,9.2214 -156.9004,64.9698 -313.7808,129.9798 -470.692,194.9199 h -0.4502 c 0.0709,-204.2507 0.0108,-408.4903 0.0309,-612.7407 z m 235.2796,62.1 c -0.0383,16.2499 -0.0695,32.5 0.0108,48.7499 -11.3502,5.9604 -22.779,11.7698 -34.2698,17.4603 -0.0711,-15.8598 0.04,-31.7106 -0.051,-47.5707 -11.9684,5.9896 -23.8691,12.0906 -35.7882,18.1604 l -0.4505,0.76 c 0.0786,15.6795 -0.0802,31.3608 0.0786,47.0404 -10.2385,5.4589 -20.5682,10.7798 -31.0383,15.7705 -0.0309,-14.6004 -0.051,-29.2008 0.009,-43.7902 -12.2307,5.6688 -24.4106,11.4687 -36.5701,17.2888 0.1001,122.031 0.0108,244.0616 0.0491,366.0914 20.641,-8.1108 41.0816,-16.8004 61.5404,-25.3809 -0.0893,-26.9997 -0.4592,-53.9886 -0.2988,-80.9895 0.1092,-11.23 -0.8914,-23.0706 4.019,-33.5296 3.3613,-7.6303 10.3499,-13.5907 18.5304,-15.4117 7.3695,-1.7498 15.931,-0.009 21.1294,5.7711 4.3912,4.9195 5.8003,11.7604 5.8312,18.1894 -0.0108,28.5409 -0.0309,57.0818 0,85.6309 21.2791,-8.5399 42.3592,-17.6006 63.6293,-26.1595 0.2806,-128.8607 0,-257.7305 0.1312,-386.5913 -12.2108,6.0699 -24.3505,12.28 -36.4918,18.5103 z m 73.7402,48.9503 c 11.5106,6.05 23.0817,11.9903 34.74,17.7393 0,-16.0495 -0.0491,-32.099 0.0312,-48.1502 -11.7808,9.9102 -23.1894,20.2708 -34.7712,30.4109 z m 70.8911,35.8796 c 10.3096,5.6103 20.7706,10.9803 31.2896,16.2008 0.0712,-14.6296 0.1202,-29.2702 -0.0309,-43.8905 -10.6194,8.9989 -20.7686,18.5502 -31.2587,27.6897 z"
     style="fill:#7f0029;fill-rule:evenodd"
     id="path23" />
  <path
     d="m 96.4403,578.849 c 3.1998,-6.0991 5.8598,-12.5005 9.3303,-18.4593 1.7492,8.3101 1.3898,17.3092 -2.5206,24.9886 -2.2998,-2.1382 -4.7999,-4.0995 -6.8097,-6.5293 z m 16.8398,15.8309 c 3.9702,-9.2815 8.7999,-18.2205 14.2705,-26.691 0.4498,11.6404 -1.7402,23.3206 -6.2204,34.0713 -2.74,-2.3913 -5.3799,-4.9105 -8.0501,-7.3803 z M 65.8505,572.5186 c 5.9596,-0.4793 12.0694,-0.4994 17.9093,0.9607 3.2505,2.3695 5.6906,5.7107 8.4603,8.6199 -5.5602,-0.3901 -10.8099,-2.4098 -15.9301,-4.4405 -3.5802,-1.5092 -7.2797,-2.8287 -10.4395,-5.1401 z m 79.1096,12.4002 c 0.7705,-1.8902 1.7101,-3.6893 2.8304,-5.3898 2.45,14.3396 -0.0201,29.1807 -5.3104,42.62 -3.2698,-2.2694 -5.6696,-5.4793 -8.4297,-8.2899 2.6595,-9.989 6.8896,-19.4508 10.9097,-28.9403 z M 74.7,593.3691 c 9.2801,-0.72 18.6401,-0.3608 27.9,0.2407 3.6,2.49 6.23,6.3088 9.14,9.6007 -12.9095,0.1292 -25.6796,-3.9209 -37.04,-9.8414 z m 93.6099,10.9514 c 0.8802,-1.9122 1.9803,-3.7111 3.1502,-5.4411 1.9403,15.6104 0.5402,31.8895 -5.9596,46.3496 -3.7902,-2.9804 -6.9503,-6.6495 -10.37,-10.0108 3.5195,-10.6594 8.4396,-20.7596 13.1794,-30.8977 z m -82.5301,11.8588 c 10.9301,-1.7791 22.1204,-1.8701 33.1203,-0.6798 2.1903,0.379 4.8801,0.1695 6.3297,2.2093 2.7706,3.1006 5.66,6.13 8.1607,9.4712 -16.3701,-0.29 -32.7002,-4.3002 -47.6107,-11.0007 z m 107.4211,12.0104 c 2.49,-4.5205 4.3892,-9.4 7.4988,-13.5505 0.8714,19.3014 -3.4103,38.6609 -11.3505,56.2105 -3.8185,-2.5991 -6.3195,-6.8208 -9.7891,-9.8904 3.1305,-11.4506 8.4897,-22.121 13.6408,-32.7696 z m 20.92,47.9097 c 5.5885,-14.6605 11.3885,-29.2992 18.5485,-43.2689 0.5814,24.4489 -4.8285,48.8081 -13.8495,71.449 -3.3996,-3.6292 -6.7606,-7.3403 -9.739,-11.3105 0.6798,-5.84 3.259,-11.2992 5.04,-16.8696 z M 96.48,641.2097 c 15.6603,-1.2704 31.5303,-1.1704 47.0803,1.2904 1.98,0.4192 4.3396,0.4393 5.6897,2.1892 3.0603,3.3502 5.9605,6.8499 8.94,10.2804 -19.2399,0.39 -38.4795,-3.6 -56.2097,-11.0004 -1.9003,-0.7892 -3.7201,-1.7388 -5.5003,-2.7596 z m 170.1711,15.3386 c 0.999,2.3403 0.5287,4.9416 0.4995,7.4115 -0.8603,26.78 -6.5693,53.3596 -16.3301,78.3005 -4.0212,-4.6406 -8.31,-9.2905 -11.5911,-14.4218 3.27,-12.6099 8.1915,-24.7586 12.8505,-36.9181 4.6208,-11.5509 9.4111,-23.0508 14.5712,-34.3721 z m -151.8808,13.7619 c 19.2801,-1.9102 39.05,-2.211 58.0597,1.9284 4.5006,4.4805 8.4703,9.5514 12.3909,14.5605 -24.2604,-0.3994 -48.7809,-5.37 -70.4506,-16.4889 z M 294.5305,709.58 c 4.2908,-9.5913 7.92,-19.531 12.9999,-28.7306 0.1004,36.3498 -7.971,72.4405 -21.1697,106.2 -4.6899,-5.8402 -9.3707,-11.7294 -13.7398,-17.8194 5.9292,-20.3601 13.6999,-40.121 21.9096,-59.65 z m -164.1606,-7.3712 c 22.9904,-1.8284 46.3805,-1.5494 69.0103,3.2609 2.6702,0.2807 4.0008,2.7596 5.5811,4.6007 2.9492,3.8588 6.3488,7.3584 9.0593,11.3995 -22.4402,0.2387 -44.8804,-3.8917 -65.9702,-11.5308 -6.0004,-2.3096 -12.0804,-4.5297 -17.6805,-7.7303 z m 220.1615,20.3201 c 0.999,-2.4497 2.0489,-4.8795 3.3285,-7.1889 0.2605,41.61 -8.8186,82.9596 -23.8091,121.659 -0.6709,1.7717 -1.5312,3.4614 -2.4698,5.1109 -4.1797,-6.2793 -9.1193,-12.0393 -13.2809,-18.3096 2.5594,-13.2809 7.3004,-26.0711 11.6694,-38.8505 7.49,-21.0696 15.8618,-41.8198 24.5619,-62.4209 z m -201.4509,19.0715 c 26.1397,-1.9411 52.649,-1.8008 78.4888,3.0297 2.4605,0.6797 5.4811,0.5505 7.4313,2.3896 4.4003,5.6395 8.7401,11.3304 13.1695,16.939 -18.7892,0.5904 -37.569,-2.0489 -55.7986,-6.5001 -14.9113,-3.7985 -29.5611,-8.8988 -43.291,-15.8582 z m 221.281,71.7699 c 8.0382,-21.3812 16.1495,-42.7604 25.3984,-63.6401 0.8804,33.1999 -4.4405,66.3797 -13.3191,98.3092 -4.5406,16.1498 -10.0908,32.0298 -16.7695,47.4194 -5.1911,-6.6294 -9.6806,-13.7693 -14.531,-20.6394 4.7299,-20.969 11.9191,-41.271 19.2212,-61.4491 z m 52.2986,17.0501 c 6.1501,-15.5699 11.8299,-31.3606 18.8694,-46.5517 0.4504,40.9705 -6.438,81.7804 -17.9286,121.0209 -5.0309,17.1105 -11.0607,33.9109 -18.0309,50.3204 -4.4603,-5.6002 -7.8088,-11.9801 -11.9684,-17.8002 -1.6223,-2.7105 -4.752,-5.3901 -3.3301,-8.8495 8.0985,-33.5299 20.209,-65.9205 32.3886,-98.1399 z M 170.6505,789.2296 c 22.009,-2.3205 44.2704,-2.2695 66.3188,-0.4102 11.1407,1.0006 22.2522,2.6705 33.1214,5.3609 1.9905,0.2386 2.9985,2.1197 4.1596,3.5197 4.2908,5.9296 8.99,11.56 13.051,17.659 -24.6603,0.8312 -49.3203,-3.1096 -73.0713,-9.5496 -14.9502,-4.2999 -29.7,-9.5295 -43.5795,-16.5798 z m 17.1093,48.0591 c 18.04,-1.7589 36.2203,-1.739 54.3204,-1.1483 21.9206,0.8986 43.9197,3.0404 65.2206,8.4886 2.8508,0.5103 3.9609,3.4597 5.5996,5.4902 4.0102,5.9513 8.8293,11.3797 12.34,17.6607 -19.5091,0.72 -39.0401,-1.3505 -58.2412,-4.7299 -27.4087,-4.9709 -54.1689,-13.5998 -79.2394,-25.7613 z m 22.2707,54.1619 c 25.6408,-1.7116 51.3893,-1.5803 77.0193,0.3098 20.251,1.5602 40.5111,4.3398 60.1203,9.79 2.6396,0.4502 3.6913,3.1297 5.1095,5.0692 4.0098,6.2994 8.4503,12.3199 12.2615,18.7509 -35.0408,1.2084 -70.1308,-4.2508 -103.7208,-14.0499 -17.3804,-5.3317 -34.6108,-11.5311 -50.7898,-19.87 z m 19.7005,55.7093 c 19.6603,-2.2896 39.5286,-2.4299 59.3093,-2.4007 31.7801,0.6197 63.8408,3.1204 94.5397,11.8307 2.55,0.43 3.4197,3.09 4.7302,4.9799 4.5606,7.8199 9.7299,15.2799 13.9606,23.29 -36.5502,1.1398 -73.1497,-4.0499 -108.3912,-13.5901 -22.03,-6.1399 -43.6388,-13.97 -64.1486,-24.1098 z"
     style="fill:#75b9c2;fill-rule:evenodd"
     id="path25" />
  <path
     d="m 743.2801,579.3595 c 12.1413,-6.2303 24.281,-12.4404 36.4918,-18.5103 -0.1312,128.8608 0.1494,257.7306 -0.1312,386.5913 -21.2701,8.5589 -42.3502,17.6196 -63.6293,26.1595 -0.0309,-28.5491 -0.0108,-57.09 0,-85.6309 -0.0309,-6.429 -1.44,-13.2699 -5.8312,-18.1894 -5.1984,-5.7801 -13.7599,-7.5209 -21.1294,-5.7711 -8.1805,1.821 -15.1691,7.7814 -18.5304,15.4117 -4.9104,10.459 -3.9098,22.2996 -4.019,33.5296 -0.1604,27.0009 0.2095,53.9898 0.2988,80.9895 -20.4588,8.5805 -40.8994,17.2701 -61.5404,25.3809 -0.0383,-122.0298 0.051,-244.0604 -0.0491,-366.0914 12.1595,-5.8201 24.3394,-11.62 36.5701,-17.2888 -0.0601,14.5894 -0.04,29.1898 -0.009,43.7902 10.4701,-4.9907 20.7998,-10.3116 31.0383,-15.7705 -0.1588,-15.6796 0,-31.3609 -0.0786,-47.0404 l 0.4505,-0.76 c 11.9191,-6.0698 23.8198,-12.1708 35.7882,-18.1604 0.091,15.8601 -0.0201,31.7109 0.051,47.5707 11.4908,-5.6905 22.9196,-11.4999 34.2698,-17.4603 -0.0803,-16.2499 -0.0491,-32.5 -0.0108,-48.7499 z m 73.7402,48.9503 c 11.5818,-10.1401 22.9904,-20.5007 34.7712,-30.4109 -0.0803,16.0512 -0.0312,32.1007 -0.0312,48.1502 -11.6583,-5.749 -23.2294,-11.6893 -34.74,-17.7393 z m 70.8911,35.8796 c 10.4901,-9.1395 20.6393,-18.6908 31.2587,-27.6897 0.1511,14.6203 0.1021,29.2609 0.0309,43.8905 -10.519,-5.2205 -20.98,-10.5905 -31.2896,-16.2008 z"
     style="fill:#bb7f81;fill-rule:evenodd"
     id="path27" />
</svg>
